<?xml version="1.0" encoding="UTF-8" standalone="no"?>
<!-- Created with Inkscape (http://www.inkscape.org/) -->

<svg
   xmlns:dc="http://purl.org/dc/elements/1.1/"
   xmlns:cc="http://creativecommons.org/ns#"
   xmlns:rdf="http://www.w3.org/1999/02/22-rdf-syntax-ns#"
   xmlns:svg="http://www.w3.org/2000/svg"
   xmlns="http://www.w3.org/2000/svg"
   xmlns:sodipodi="http://sodipodi.sourceforge.net/DTD/sodipodi-0.dtd"
   xmlns:inkscape="http://www.inkscape.org/namespaces/inkscape"
   width="210mm"
   height="297mm"
   viewBox="0 0 210 297"
   version="1.1"
   id="svg8"
   inkscape:version="0.92.4 (5da689c313, 2019-01-14)"
   sodipodi:docname="drawing.svg">
  <defs
     id="defs2">
    <inkscape:path-effect
       effect="bspline"
       id="path-effect545"
       is_visible="true"
       weight="33.333333"
       steps="2"
       helper_size="0"
       apply_no_weight="true"
       apply_with_weight="true"
       only_selected="false" />
    <inkscape:path-effect
       effect="bspline"
       id="path-effect541"
       is_visible="true"
       weight="33.333333"
       steps="2"
       helper_size="0"
       apply_no_weight="true"
       apply_with_weight="true"
       only_selected="false" />
    <inkscape:path-effect
       effect="bspline"
       id="path-effect537"
       is_visible="true"
       weight="33.333333"
       steps="2"
       helper_size="0"
       apply_no_weight="true"
       apply_with_weight="true"
       only_selected="false" />
    <inkscape:path-effect
       effect="bspline"
       id="path-effect533"
       is_visible="true"
       weight="33.333333"
       steps="2"
       helper_size="0"
       apply_no_weight="true"
       apply_with_weight="true"
       only_selected="false" />
    <inkscape:path-effect
       effect="bspline"
       id="path-effect529"
       is_visible="true"
       weight="33.333333"
       steps="2"
       helper_size="0"
       apply_no_weight="true"
       apply_with_weight="true"
       only_selected="false" />
    <inkscape:path-effect
       effect="bspline"
       id="path-effect525"
       is_visible="true"
       weight="33.333333"
       steps="2"
       helper_size="0"
       apply_no_weight="true"
       apply_with_weight="true"
       only_selected="false" />
    <inkscape:path-effect
       effect="bspline"
       id="path-effect521"
       is_visible="true"
       weight="33.333333"
       steps="2"
       helper_size="0"
       apply_no_weight="true"
       apply_with_weight="true"
       only_selected="false" />
    <inkscape:path-effect
       effect="bspline"
       id="path-effect517"
       is_visible="true"
       weight="33.333333"
       steps="2"
       helper_size="0"
       apply_no_weight="true"
       apply_with_weight="true"
       only_selected="false" />
    <inkscape:path-effect
       effect="bspline"
       id="path-effect513"
       is_visible="true"
       weight="33.333333"
       steps="2"
       helper_size="0"
       apply_no_weight="true"
       apply_with_weight="true"
       only_selected="false" />
    <inkscape:path-effect
       effect="bspline"
       id="path-effect509"
       is_visible="true"
       weight="33.333333"
       steps="2"
       helper_size="0"
       apply_no_weight="true"
       apply_with_weight="true"
       only_selected="false" />
    <inkscape:path-effect
       effect="bspline"
       id="path-effect468"
       is_visible="true"
       weight="33.333333"
       steps="2"
       helper_size="0"
       apply_no_weight="true"
       apply_with_weight="true"
       only_selected="false" />
    <inkscape:path-effect
       effect="bspline"
       id="path-effect464"
       is_visible="true"
       weight="33.333333"
       steps="2"
       helper_size="0"
       apply_no_weight="true"
       apply_with_weight="true"
       only_selected="false" />
    <inkscape:path-effect
       effect="bspline"
       id="path-effect456"
       is_visible="true"
       weight="33.333333"
       steps="2"
       helper_size="0"
       apply_no_weight="true"
       apply_with_weight="true"
       only_selected="false" />
    <inkscape:path-effect
       effect="bspline"
       id="path-effect452"
       is_visible="true"
       weight="33.333333"
       steps="2"
       helper_size="0"
       apply_no_weight="true"
       apply_with_weight="true"
       only_selected="false" />
    <inkscape:path-effect
       effect="bspline"
       id="path-effect448"
       is_visible="true"
       weight="33.333333"
       steps="2"
       helper_size="0"
       apply_no_weight="true"
       apply_with_weight="true"
       only_selected="false" />
    <inkscape:path-effect
       effect="bspline"
       id="path-effect444"
       is_visible="true"
       weight="33.333333"
       steps="2"
       helper_size="0"
       apply_no_weight="true"
       apply_with_weight="true"
       only_selected="false" />
    <inkscape:path-effect
       effect="bspline"
       id="path-effect440"
       is_visible="true"
       weight="33.333333"
       steps="2"
       helper_size="0"
       apply_no_weight="true"
       apply_with_weight="true"
       only_selected="false" />
    <inkscape:path-effect
       effect="bspline"
       id="path-effect436"
       is_visible="true"
       weight="33.333333"
       steps="2"
       helper_size="0"
       apply_no_weight="true"
       apply_with_weight="true"
       only_selected="false" />
    <inkscape:path-effect
       effect="bspline"
       id="path-effect432"
       is_visible="true"
       weight="33.333333"
       steps="2"
       helper_size="0"
       apply_no_weight="true"
       apply_with_weight="true"
       only_selected="false" />
    <inkscape:path-effect
       effect="bspline"
       id="path-effect428"
       is_visible="true"
       weight="33.333333"
       steps="2"
       helper_size="0"
       apply_no_weight="true"
       apply_with_weight="true"
       only_selected="false" />
    <inkscape:path-effect
       effect="bspline"
       id="path-effect424"
       is_visible="true"
       weight="33.333333"
       steps="2"
       helper_size="0"
       apply_no_weight="true"
       apply_with_weight="true"
       only_selected="false" />
    <inkscape:path-effect
       effect="bspline"
       id="path-effect382"
       is_visible="true"
       weight="33.333333"
       steps="2"
       helper_size="0"
       apply_no_weight="true"
       apply_with_weight="true"
       only_selected="false" />
    <inkscape:path-effect
       effect="bspline"
       id="path-effect378"
       is_visible="true"
       weight="33.333333"
       steps="2"
       helper_size="0"
       apply_no_weight="true"
       apply_with_weight="true"
       only_selected="false" />
    <inkscape:path-effect
       effect="bspline"
       id="path-effect374"
       is_visible="true"
       weight="33.333333"
       steps="2"
       helper_size="0"
       apply_no_weight="true"
       apply_with_weight="true"
       only_selected="false" />
    <inkscape:path-effect
       effect="bspline"
       id="path-effect370"
       is_visible="true"
       weight="33.333333"
       steps="2"
       helper_size="0"
       apply_no_weight="true"
       apply_with_weight="true"
       only_selected="false" />
    <inkscape:path-effect
       effect="bspline"
       id="path-effect366"
       is_visible="true"
       weight="33.333333"
       steps="2"
       helper_size="0"
       apply_no_weight="true"
       apply_with_weight="true"
       only_selected="false" />
    <inkscape:path-effect
       effect="bspline"
       id="path-effect362"
       is_visible="true"
       weight="33.333333"
       steps="2"
       helper_size="0"
       apply_no_weight="true"
       apply_with_weight="true"
       only_selected="false" />
    <inkscape:path-effect
       effect="bspline"
       id="path-effect358"
       is_visible="true"
       weight="33.333333"
       steps="2"
       helper_size="0"
       apply_no_weight="true"
       apply_with_weight="true"
       only_selected="false" />
    <inkscape:path-effect
       effect="bspline"
       id="path-effect193"
       is_visible="true"
       weight="33.333333"
       steps="2"
       helper_size="0"
       apply_no_weight="true"
       apply_with_weight="true"
       only_selected="false" />
    <inkscape:path-effect
       effect="bspline"
       id="path-effect189"
       is_visible="true"
       weight="33.333333"
       steps="2"
       helper_size="0"
       apply_no_weight="true"
       apply_with_weight="true"
       only_selected="false" />
    <inkscape:path-effect
       effect="bspline"
       id="path-effect185"
       is_visible="true"
       weight="33.333333"
       steps="2"
       helper_size="0"
       apply_no_weight="true"
       apply_with_weight="true"
       only_selected="false" />
    <inkscape:path-effect
       effect="bspline"
       id="path-effect181"
       is_visible="true"
       weight="33.333333"
       steps="2"
       helper_size="0"
       apply_no_weight="true"
       apply_with_weight="true"
       only_selected="false" />
    <inkscape:path-effect
       effect="bspline"
       id="path-effect177"
       is_visible="true"
       weight="33.333333"
       steps="2"
       helper_size="0"
       apply_no_weight="true"
       apply_with_weight="true"
       only_selected="false" />
    <inkscape:path-effect
       effect="bspline"
       id="path-effect173"
       is_visible="true"
       weight="33.333333"
       steps="2"
       helper_size="0"
       apply_no_weight="true"
       apply_with_weight="true"
       only_selected="false" />
    <inkscape:path-effect
       effect="bspline"
       id="path-effect169"
       is_visible="true"
       weight="33.333333"
       steps="2"
       helper_size="0"
       apply_no_weight="true"
       apply_with_weight="true"
       only_selected="false" />
    <inkscape:path-effect
       effect="bspline"
       id="path-effect165"
       is_visible="true"
       weight="33.333333"
       steps="2"
       helper_size="0"
       apply_no_weight="true"
       apply_with_weight="true"
       only_selected="false" />
    <inkscape:path-effect
       effect="bspline"
       id="path-effect161"
       is_visible="true"
       weight="33.333333"
       steps="2"
       helper_size="0"
       apply_no_weight="true"
       apply_with_weight="true"
       only_selected="false" />
    <inkscape:path-effect
       effect="bspline"
       id="path-effect157"
       is_visible="true"
       weight="33.333333"
       steps="2"
       helper_size="0"
       apply_no_weight="true"
       apply_with_weight="true"
       only_selected="false" />
    <inkscape:path-effect
       effect="bspline"
       id="path-effect153"
       is_visible="true"
       weight="33.333333"
       steps="2"
       helper_size="0"
       apply_no_weight="true"
       apply_with_weight="true"
       only_selected="false" />
    <inkscape:path-effect
       effect="bspline"
       id="path-effect149"
       is_visible="true"
       weight="33.333333"
       steps="2"
       helper_size="0"
       apply_no_weight="true"
       apply_with_weight="true"
       only_selected="false" />
    <inkscape:path-effect
       effect="bspline"
       id="path-effect145"
       is_visible="true"
       weight="33.333333"
       steps="2"
       helper_size="0"
       apply_no_weight="true"
       apply_with_weight="true"
       only_selected="false" />
    <inkscape:path-effect
       effect="bspline"
       id="path-effect141"
       is_visible="true"
       weight="33.333333"
       steps="2"
       helper_size="0"
       apply_no_weight="true"
       apply_with_weight="true"
       only_selected="false" />
    <inkscape:path-effect
       effect="bspline"
       id="path-effect137"
       is_visible="true"
       weight="33.333333"
       steps="2"
       helper_size="0"
       apply_no_weight="true"
       apply_with_weight="true"
       only_selected="false" />
    <inkscape:perspective
       sodipodi:type="inkscape:persp3d"
       inkscape:vp_x="0 : 148.5 : 1"
       inkscape:vp_y="0 : 1000 : 0"
       inkscape:vp_z="210 : 148.5 : 1"
       inkscape:persp3d-origin="105 : 99 : 1"
       id="perspective20" />
  </defs>
  <sodipodi:namedview
     id="base"
     pagecolor="#ffffff"
     bordercolor="#666666"
     borderopacity="1.0"
     inkscape:pageopacity="0.0"
     inkscape:pageshadow="2"
     inkscape:zoom="0.35"
     inkscape:cx="459.85052"
     inkscape:cy="626.85572"
     inkscape:document-units="mm"
     inkscape:current-layer="layer1"
     showgrid="false"
     inkscape:snap-midpoints="false"
     inkscape:snap-bbox="true"
     inkscape:object-paths="false"
     inkscape:snap-intersection-paths="false"
     inkscape:snap-smooth-nodes="false"
     inkscape:object-nodes="false"
     showguides="true"
     inkscape:guide-bbox="true"
     inkscape:window-width="1366"
     inkscape:window-height="706"
     inkscape:window-x="-8"
     inkscape:window-y="-8"
     inkscape:window-maximized="1" />
  <metadata
     id="metadata5">
    <rdf:RDF>
      <cc:Work
         rdf:about="">
        <dc:format>image/svg+xml</dc:format>
        <dc:type
           rdf:resource="http://purl.org/dc/dcmitype/StillImage" />
        <dc:title></dc:title>
      </cc:Work>
    </rdf:RDF>
  </metadata>
  <g
     inkscape:label="Layer 1"
     inkscape:groupmode="layer"
     id="layer1">
    <path
       id="rect16"
       transform="scale(0.26458333)"
       style="fill:#008000;stroke-width:0.99999994"
       d="M -978.57227,298.23438 V 1021.0918 H -190 V 322.20898 c -7.53126,-4.99868 -7.83861,-14.46235 0,-20.36914 v -3.60546 z" />
    <path
       id="path68"
       transform="scale(0.26458333)"
       style="fill:#ffff00;stroke:#000000;stroke-width:0.99999994px;stroke-linecap:butt;stroke-linejoin:miter;stroke-opacity:1"
       d="m -580,-26.050781 c 0,0 -8.3e-4,-2.857787 -398.57227,324.285161 H -190 Z" />
    <rect
       style="fill:#00ff00;stroke-width:0.26458332"
       id="rect79"
       width="44.601189"
       height="46.869045"
       x="-231.32143"
       y="105.74404" />
    <rect
       style="fill:#00ff00;stroke-width:0.26458332"
       id="rect83"
       width="129.26785"
       height="85.422623"
       x="-226.02975"
       y="173.77977" />
    <rect
       style="fill:#00ff00;stroke-width:0.26458332"
       id="rect79-6"
       width="44.601189"
       height="46.869045"
       x="-134.9375"
       y="104.9881" />
    <rect
       style="fill:#808000;stroke:#000000;stroke-width:0.26458332"
       id="rect346"
       width="27.214285"
       height="51.404762"
       x="-192.76785"
       y="208.55356" />
    <circle
       style="fill:#808000;stroke:#000000;stroke-width:0.26458332"
       id="path348"
       cx="-185.20833"
       cy="241.81548"
       r="3.0238097" />
    <path
       id="path356"
       transform="scale(0.26458333)"
       style="fill:none;stroke:#000000;stroke-width:0.99999994px;stroke-linecap:butt;stroke-linejoin:miter;stroke-opacity:1"
       d="m 1277.8535,-269.12305 c -0.3487,0.12834 -0.6975,0.25519 -1.0469,0.38477 -0.011,0.051 -0.026,0.10139 -0.037,0.15234 0.3613,-0.17901 0.7226,-0.35827 1.084,-0.53711 z" />
    <path
       style="fill:none;stroke:#000000;stroke-width:0.26458332px;stroke-linecap:butt;stroke-linejoin:miter;stroke-opacity:1"
       d="m 402.04199,-27.555088 c -1.13447,-0.503966 -2.39439,-1.259919 -3.2754,-1.63813 -0.88102,-0.37821 -1.38497,-0.37821 -1.88974,-0.503941 -0.50477,-0.12573 -1.00873,-0.377706 -1.5119,-0.503964 -0.50317,-0.126257 -1.00715,-0.126257 -1.51191,-0.251982 -0.50476,-0.125724 -1.00874,-0.377712 -1.6379,-0.50397 -0.62917,-0.126257 -1.38511,-0.126257 -2.01587,-0.251982 -0.63075,-0.125725 -1.13472,-0.37771 -2.01588,-0.503969 -0.88115,-0.12626 -2.14107,-0.12626 -3.77896,-0.12626 -1.63789,0 -3.65378,0 -5.41767,0 -1.76388,0 -3.27579,0 -4.40972,0 -1.13392,0 -1.88988,0 -2.51957,0.1252 -0.6297,0.125199 -1.13365,0.377176 -1.5119,0.503965 -0.37825,0.126789 -0.63024,0.126789 -0.88222,0.251457 -0.25197,0.124668 -0.50396,0.376652 -0.88193,0.503968 -0.37797,0.127316 -0.88195,0.127316 -1.13527,0.251985 -0.25331,0.124669 -0.25331,0.376653 -0.37798,0.503968 -0.12467,0.127315 -0.37663,0.127315 -0.50395,0.251984 -0.12732,0.124669 -0.12732,0.376653 -0.25199,0.503967 -0.12467,0.127315 -0.37666,0.127315 -0.50398,0.251984 -0.12731,0.124669 -0.12731,0.376656 -0.25197,0.50397 -0.12466,0.127315 -0.37665,0.127315 -0.50397,0.251984 -0.12731,0.12467 -0.12731,0.376653 -0.25199,0.503968 -0.12467,0.127315 -0.37666,0.127315 -0.50397,0.251984 -0.1273,0.124669 -0.1273,0.376653 -0.25197,0.503968 -0.12467,0.127315 -0.37666,0.127315 -0.50398,0.251984 -0.12731,0.12467 -0.12731,0.376654 -0.37797,0.754627 -0.25066,0.377972 -0.75463,0.881945 -1.00794,1.259923 -0.25331,0.377977 -0.25331,0.629961 -0.37851,1.007674 -0.12519,0.377712 -0.37717,0.881676 -0.62956,1.637661 -0.25239,0.755985 -0.50438,1.763922 -0.75596,2.51984 -0.25158,0.755918 -0.50356,1.25989 -0.88131,1.889913 -0.37776,0.630024 -0.88172,1.385972 -1.13473,1.890144 -0.253,0.504173 -0.253,0.756157 -0.37767,1.008143 -0.12467,0.251986 -0.37664,0.503965 -0.50396,0.881942 -0.12731,0.377977 -0.12731,0.881945 -0.25198,1.25992 -0.12467,0.377976 -0.37666,0.62996 -0.62918,1.007674 -0.25251,0.377713 -0.50449,0.881673 -0.63127,1.259917 -0.12679,0.3782438 -0.12679,0.6302279 -0.25146,0.7575429 -0.12467,0.127315 -0.37666,0.127315 -0.50398,0.2519842 -0.12732,0.1246691 -0.12732,0.3766532 -0.25198,0.6286313 -0.12466,0.2519781 -0.37665,0.5039672 -0.50396,0.7559549 -0.12732,0.2519877 -0.12732,0.5039718 -0.25252,0.8816845 -0.12519,0.3777126 -0.37718,0.8816849 -0.50396,1.3859146 -0.12678,0.5042297 -0.12678,1.008198 -0.25145,1.3861732 -0.12467,0.3779751 -0.37666,0.6299593 -0.62918,1.007673 -0.25251,0.3777138 -0.50449,0.8816741 -0.63127,1.3859097 -0.12679,0.5042357 -0.12679,1.00820391 -0.25239,1.76392273 -0.12561,0.75571881 -0.3776,1.76365607 -0.75532,2.89754167 -0.37773,1.1338855 -0.8817,2.3938096 -1.13433,3.4020205 -0.25262,1.008211 -0.25262,1.7641634 -0.37728,2.1434624 -0.12466,0.379299 -0.37665,0.379299 -0.50397,0.5039682 C 349.25,9.2314809 349.25,9.4834651 349.25,10.239418 c 0,0.755952 0,2.015873 0.12731,2.647156 0.12732,0.631283 0.37931,0.631283 0.62996,0.757274 0.25066,0.125992 0.50264,0.377978 0.75463,0.629964 0.25199,0.251987 0.50396,0.503959 0.75568,0.881409 0.25173,0.37745 0.50371,0.881419 1.00825,1.386118 0.50454,0.5047 1.2605,1.008677 1.76416,1.38645 0.50366,0.377774 0.75564,0.629763 1.13415,0.882008 0.3785,0.252246 0.88248,0.504234 1.51221,0.882147 0.62974,0.377914 1.38569,0.881873 2.01666,1.133655 0.63098,0.251782 1.13495,0.251782 1.89011,0.504033 0.75516,0.252252 1.76309,0.756216 3.40143,1.260135 1.63835,0.503919 3.90622,1.007893 5.29169,1.385917 1.38546,0.378025 1.88941,0.630001 2.39417,0.75573 0.50476,0.125728 1.00874,0.125728 1.3854,0.251721 0.37665,0.125994 0.62863,0.377973 0.88194,0.503966 0.25331,0.125994 0.50529,0.125994 0.75595,0.251982 0.25066,0.125988 0.50265,0.377977 1.00793,0.50397 0.50529,0.125994 1.26125,0.125994 2.26918,0.125994 1.00793,0 2.26785,0 3.78003,-0.378662 1.51219,-0.378662 3.27608,-1.134619 4.53573,-1.511907 1.25965,-0.377288 2.01559,-0.377288 2.64582,-0.504071 0.63022,-0.126782 1.13419,-0.378766 1.76389,-0.503968 0.62969,-0.125201 1.38564,-0.125201 1.7623,-0.252516 0.37666,-0.127315 0.37666,-0.379299 0.50397,-0.503968 0.12732,-0.12467 0.37928,-0.12467 0.50395,-0.251985 0.12468,-0.127315 0.12468,-0.379299 0.25199,-0.503968 0.12732,-0.124669 0.37931,-0.124669 0.50398,-0.251984 0.12468,-0.127315 0.12468,-0.379299 0.25199,-0.503968 0.12732,-0.124669 0.37928,-0.124669 1.3874,-0.755704 1.00813,-0.631035 2.772,-1.890947 3.77977,-2.519837 1.00776,-0.62889 1.25975,-0.62889 1.38442,-0.756205 0.12467,-0.127315 0.12467,-0.379299 0.37797,-0.757274 0.2533,-0.377975 0.75727,-0.881953 1.00793,-1.259926 0.25065,-0.377972 0.25065,-0.629956 0.50396,-1.007936 0.25331,-0.37798 0.75729,-0.881953 1.00794,-1.259923 0.25066,-0.37797 0.25066,-0.629954 0.37798,-0.754623 0.12732,-0.12467 0.37931,-0.12467 0.50398,-0.377977 0.12467,-0.253307 0.12467,-0.757275 0.25198,-1.007936 0.12732,-0.250662 0.37929,-0.250662 0.75727,-0.50397 0.37798,-0.2533079 0.88194,-0.7572711 1.25992,-1.0079337 0.37798,-0.2506627 0.62997,-0.2506627 0.75463,-0.3779775 0.12466,-0.1273149 0.12466,-0.379299 0.37797,-0.5039681 0.25331,-0.1246692 0.75729,-0.1246692 1.00794,-0.2519842 0.25066,-0.127315 0.25066,-0.3792991 0.37797,-0.5039682 0.12732,-0.1246692 0.37931,-0.1246692 0.50398,-0.2519842 0.12468,-0.127315 0.12468,-0.3792991 0.25199,-0.5039682 0.12732,-0.1246692 0.37928,-0.1246692 0.50395,-0.2519842 0.12468,-0.127315 0.12468,-0.3792991 0.252,-0.6312826 0.12731,-0.2519836 0.3793,-0.5039694 0.75754,-0.7554223 0.37823,-0.251453 0.88221,-0.5034438 1.5119,-1.0079416 0.6297,-0.5044977 1.38564,-1.2604417 1.7623,-1.7644122 0.37666,-0.5039706 0.37666,-0.7559547 0.50398,-0.8806238 0.12732,-0.1246692 0.37928,-0.1246692 0.50395,-0.2519841 0.12467,-0.127315 0.12467,-0.37929915 0.25199,-0.5039683 0.12732,-0.12466915 0.37931,-0.12466915 0.50398,-0.37797618 0.12467,-0.25330704 0.12467,-0.7572753 0.25198,-1.13524752 0.12731,-0.3779722 0.37929,-0.6299614 0.50396,-0.8819469 0.12467,-0.2519856 0.12467,-0.5039697 0.25199,-0.7559574 0.12731,-0.2519877 0.3793,-0.5039767 0.50396,-1.133931 0.12466,-0.6299543 0.12466,-1.6378909 0.12466,-3.1497955 0,-1.5119047 0,-3.5277783 0,-4.6617063 0,-1.133928 0,-1.385913 0,-1.637897 0,-0.251984 0,-0.503968 -0.12466,-0.628637 -0.12465,-0.124669 -0.37664,-0.124669 -0.50396,-0.251984 -0.12732,-0.127315 -0.12732,-0.379299 -0.37931,-0.755954 -0.25198,-0.376655 -0.75594,-0.880613 -1.00793,-1.259916 -0.25199,-0.379303 -0.25199,-0.631287 -0.37666,-0.755956 -0.12467,-0.124669 -0.37663,-0.124669 -0.50395,-0.251984 -0.12732,-0.127315 -0.12732,-0.379299 -0.37931,-0.755954 -0.25198,-0.376654 -0.75596,-0.880627 -1.00794,-1.259923 -0.25198,-0.379295 -0.25198,-0.631279 -0.37665,-0.755948 -0.12467,-0.124669 -0.37666,-0.124669 -0.50398,-0.251984 -0.12731,-0.127315 -0.12731,-0.379299 -0.25197,-0.503968 -0.12466,-0.12467 -0.37665,-0.12467 -0.50397,-0.251985 -0.12732,-0.127315 -0.12732,-0.379299 -0.25199,-0.503968 -0.12467,-0.124669 -0.37666,-0.124669 -0.62996,-0.250661 -0.2533,-0.125992 -0.50528,-0.377978 -1.00846,-0.629696 -0.50317,-0.251719 -1.25914,-0.503709 -1.76257,-0.629963 -0.50344,-0.126254 -0.75543,-0.126254 -0.88275,-0.253569 -0.12731,-0.127315 -0.12731,-0.379299 -0.25197,-0.503968 -0.12466,-0.124669 -0.37665,-0.124669 -0.63022,-0.377185 -0.25357,-0.252517 -0.50555,-0.756486 -0.75595,-1.007937 -0.2504,-0.251452 -0.50239,-0.251452 -0.62971,-0.378767 -0.12731,-0.127315 -0.12731,-0.379299 -0.25198,-0.503968 -0.12467,-0.124669 -0.37664,-0.124669 -0.50396,-0.251984 -0.12731,-0.127315 -0.12731,-0.379299 -0.63035,-0.629729 -0.50305,-0.25043 -1.51098,-0.502411 -2.64545,-1.006378 z"
       id="path422"
       inkscape:connector-curvature="0"
       inkscape:path-effect="#path-effect424"
       inkscape:original-d="m 402.16666,-27.303571 c -1.25727,-0.758597 -2.51719,-1.514552 -3.77976,-2.267857 -0.50133,-0.0026 -1.00528,-0.0026 -1.5119,0 -0.50134,-0.25463 -1.00529,-0.506614 -1.51191,-0.755952 -0.50131,-0.0026 -1.00529,-0.0026 -1.51191,0 -0.50131,-0.25463 -1.00529,-0.506614 -1.51191,-0.755952 -0.7533,-0.0026 -1.50924,-0.0026 -2.26785,0 -0.50131,-0.254632 -1.00528,-0.506616 -1.51191,-0.755954 -1.25727,-0.0026 -2.51719,-0.0026 -3.77976,0 -2.01321,-0.0026 -4.0291,-0.0026 -6.0476,0 -1.50927,-0.0026 -3.02118,-0.0026 -4.53573,0 -0.7533,-0.0026 -1.50926,-0.0026 -2.26785,0 -0.50133,0.249338 -1.00528,0.501322 -1.51191,0.755954 -0.24934,-0.0026 -0.50133,-0.0026 -0.75594,0 -0.24934,0.249338 -0.50133,0.501322 -0.75597,0.755952 -0.5013,-0.0026 -1.00528,-0.0026 -1.51191,0 0.003,0.249338 0.003,0.501322 0,0.755952 -0.24934,-0.0026 -0.5013,-0.0026 -0.75594,0 0.003,0.249338 0.003,0.501322 0,0.755951 -0.24934,-0.0026 -0.50133,-0.0026 -0.75596,0 0.003,0.249338 0.003,0.501325 0,0.755954 -0.24932,-0.0026 -0.50131,-0.0026 -0.75594,0 0.003,0.249339 0.003,0.501322 0,0.755952 -0.24935,-0.0026 -0.50134,-0.0026 -0.75595,0 0.003,0.249338 0.003,0.501322 0,0.755952 -0.24934,-0.0026 -0.50133,-0.0026 -0.75596,0 0.003,0.249339 0.003,0.501323 0,0.755953 -0.50131,0.501322 -1.00529,1.00529 -1.51191,1.511904 0.003,0.249339 0.003,0.501323 0,0.755953 -0.24934,0.501322 -0.50131,1.00529 -0.75594,1.511904 -0.24935,1.005291 -0.50134,2.013228 -0.75597,3.02381 -0.24932,0.501323 -0.50131,1.005291 -0.75594,1.511905 -0.50133,0.753306 -1.00529,1.509259 -1.51191,2.267857 0.003,0.249338 0.003,0.501322 0,0.755952 -0.24934,0.249339 -0.50131,0.501323 -0.75594,0.755953 0.003,0.501322 0.003,1.00529 0,1.511904 -0.24934,0.249339 -0.50133,0.501323 -0.75597,0.755953 -0.24934,0.501322 -0.5013,1.00529 -0.75594,1.5119044 0.003,0.2493384 0.003,0.5013225 0,0.7559525 -0.24934,-0.00265 -0.50133,-0.00265 -0.75597,0 0.003,0.2493383 0.003,0.5013224 0,0.7559524 -0.24931,0.2493383 -0.5013,0.5013224 -0.75594,0.7559524 0.003,0.2493383 0.003,0.5013224 0,0.7559521 -0.24934,0.5013225 -0.50133,1.0052907 -0.75594,1.5119048 0.003,0.5013225 0.003,1.0052908 0,1.5119049 -0.24934,0.2493383 -0.50133,0.5013224 -0.75597,0.7559524 -0.24934,0.5013223 -0.5013,1.0052906 -0.75594,1.5119047 0.003,0.5013224 0.003,1.00529061 0,1.51190469 -0.24934,1.00529066 -0.50133,2.01322711 -0.75596,3.02380961 -0.50131,1.2572746 -1.00529,2.5171952 -1.51191,3.7797618 0.003,0.7533065 0.003,1.5092589 0,2.2678569 -0.24932,-0.00265 -0.50131,-0.00265 -0.75594,0 0.003,0.2493383 0.003,0.5013225 0,0.7559524 0.003,1.257275 0.003,2.517196 0,3.779762 0.25463,-0.0026 0.50662,-0.0026 0.75594,0 0.25463,0.249338 0.50662,0.501323 0.75596,0.755952 0.25464,0.249339 0.5066,0.501323 0.75595,0.755953 0.25463,0.501322 0.50662,1.00529 0.75596,1.511904 0.75859,0.501323 1.51456,1.005291 2.26785,1.511905 0.25464,0.249339 0.50663,0.501323 0.75594,0.755953 0.50663,0.249338 1.01061,0.501322 1.51191,0.755952 0.75862,0.501322 1.51456,1.005291 2.26788,1.511905 0.5066,-0.0026 1.01057,-0.0026 1.51188,0 1.0106,0.501322 2.01853,1.00529 3.02382,1.511904 2.27049,0.501323 4.53837,1.005291 6.80357,1.511905 0.50663,0.249339 1.01058,0.501323 1.51191,0.755952 0.5066,-0.0026 1.01058,-0.0026 1.51191,0 0.25463,0.249339 0.5066,0.501323 0.75594,0.755953 0.25464,-0.0026 0.50662,-0.0026 0.75597,0 0.25461,0.249338 0.5066,0.501322 0.75594,0.755952 0.75859,-0.0026 1.51455,-0.0026 2.26785,0 1.26256,-0.0026 2.52248,-0.0026 3.77976,0 1.76654,-0.758598 3.53044,-1.51455 5.29166,-2.267857 0.75862,-0.0026 1.51456,-0.0026 2.26788,0 0.5066,-0.25463 1.01057,-0.506614 1.51191,-0.755952 0.75858,-0.0026 1.51453,-0.0026 2.26785,0 0.003,-0.25463 0.003,-0.506614 0,-0.755953 0.25463,-0.0026 0.50659,-0.0026 0.75594,0 0.003,-0.25463 0.003,-0.506614 0,-0.755952 0.25463,-0.0026 0.50662,-0.0026 0.75597,0 0.003,-0.25463 0.003,-0.506614 0,-0.755952 0.25463,-0.0026 0.50659,-0.0026 0.75594,0 1.76654,-1.262567 3.53041,-2.522487 5.29166,-3.779762 0.25464,-0.0026 0.50663,-0.0026 0.75597,0 0.003,-0.25463 0.003,-0.506614 0,-0.755953 0.5066,-0.506614 1.01058,-1.010582 1.51188,-1.511904 0.003,-0.25463 0.003,-0.506614 0,-0.755953 0.50663,-0.506614 1.01061,-1.010582 1.51191,-1.511904 0.003,-0.25463 0.003,-0.506614 0,-0.755953 0.25464,-0.0026 0.50663,-0.0026 0.75597,0 0.003,-0.506614 0.003,-1.010582 0,-1.511905 0.25463,-0.0026 0.5066,-0.0026 0.75594,0 0.50662,-0.5066137 1.01058,-1.0105819 1.51191,-1.5119044 0.25463,-0.00265 0.50662,-0.00265 0.75594,0 0.003,-0.2546297 0.003,-0.5066138 0,-0.7559521 0.50662,-0.00265 1.0106,-0.00265 1.51191,0 0.003,-0.25463 0.003,-0.5066141 0,-0.7559524 0.25463,-0.00265 0.50662,-0.00265 0.75597,0 0.003,-0.25463 0.003,-0.5066141 0,-0.7559524 0.25463,-0.00265 0.50659,-0.00265 0.75594,0 0.003,-0.25463 0.003,-0.5066141 0,-0.7559525 0.25463,-0.2546299 0.50662,-0.5066141 0.75596,-0.7559524 0.5066,-0.2546299 1.01058,-0.5066141 1.51189,-0.7559524 0.75861,-0.7585982 1.51455,-1.5145504 2.26787,-2.267857 0.003,-0.25463 0.003,-0.5066141 0,-0.7559524 0.25464,-0.00265 0.5066,-0.00265 0.75594,0 0.003,-0.2546299 0.003,-0.50661405 0,-0.75595235 0.25464,-0.002646 0.50663,-0.002646 0.75597,0 0.003,-0.50661407 0.003,-1.01058233 0,-1.51190474 0.25461,-0.25462991 0.5066,-0.50661411 0.75594,-0.75595231 0.003,-0.25463 0.003,-0.5066141 0,-0.7559524 0.25464,-0.25463 0.50663,-0.506614 0.75594,-0.7559523 0.003,-1.0105824 0.003,-2.018519 0,-3.0238097 0.003,-2.0185186 0.003,-4.0343922 0,-6.0476192 0.003,-0.254629 0.003,-0.506614 0,-0.755952 0.003,-0.25463 0.003,-0.506614 0,-0.755952 -0.24931,-0.0026 -0.5013,-0.0026 -0.75594,0 0.003,-0.25463 0.003,-0.506614 0,-0.755953 -0.50133,-0.506614 -1.00528,-1.010582 -1.51191,-1.511905 0.003,-0.25463 0.003,-0.506614 0,-0.755952 -0.24934,-0.0026 -0.5013,-0.0026 -0.75594,0 0.003,-0.25463 0.003,-0.506614 0,-0.755952 -0.50133,-0.506614 -1.00531,-1.010582 -1.51191,-1.511905 0.003,-0.25463 0.003,-0.506614 0,-0.755952 -0.24934,-0.0026 -0.50133,-0.0026 -0.75596,0 0.003,-0.25463 0.003,-0.506614 0,-0.755953 -0.24932,-0.0026 -0.50131,-0.0026 -0.75595,0 0.003,-0.25463 0.003,-0.506614 0,-0.755952 -0.24934,-0.0026 -0.50133,-0.0026 -0.75594,0 -0.24934,-0.25463 -0.50133,-0.506614 -0.75596,-0.755953 -0.7533,-0.25463 -1.50927,-0.506614 -2.26785,-0.755952 -0.24935,-0.0026 -0.50134,-0.0026 -0.75597,0 0.003,-0.25463 0.003,-0.506614 0,-0.755952 -0.24932,-0.0026 -0.50131,-0.0026 -0.75594,0 -0.24935,-0.506614 -0.50133,-1.010583 -0.75594,-1.511905 -0.24935,-0.0026 -0.50134,-0.0026 -0.75597,0 0.003,-0.25463 0.003,-0.506614 0,-0.755952 -0.24934,-0.0026 -0.50131,-0.0026 -0.75594,0 0.003,-0.25463 0.003,-0.506614 0,-0.755953 -1.00531,-0.25463 -2.01324,-0.506614 -3.02382,-0.755952 z" />
    <path
       style="fill:none;stroke:#000000;stroke-width:0.26458332px;stroke-linecap:butt;stroke-linejoin:miter;stroke-opacity:1"
       d="m 377.97618,-19.744047 c -0.50238,1.004755 -1.00635,2.012696 -1.38379,2.518253 -0.37744,0.505556 -0.62943,0.505556 -0.75675,0.630225 -0.12731,0.124669 -0.12731,0.376653 -0.25198,0.628639 -0.12467,0.251986 -0.37665,0.503975 -0.50396,0.755955 -0.12731,0.25198 -0.12731,0.503964 -0.25198,0.631279 -0.12468,0.127315 -0.37666,0.127315 -0.50398,0.251985 -0.12732,0.124669 -0.12732,0.376653 -0.12732,0.628637 0,0.251984 0,0.503968 0,1.763889 0,1.25992 0,3.5277774 0,4.787698 0,1.2599205 0,1.5119047 0,1.7638888 0,0.2519841 0,0.5039683 -0.12467,0.7559539 -0.12467,0.2519856 -0.37664,0.5039647 -0.50396,1.007934 -0.12731,0.5039693 -0.12731,1.2599216 -0.25198,1.6392208 -0.12467,0.3792991 -0.37666,0.3792991 -0.6313,0.3792991"
       id="path426"
       inkscape:connector-curvature="0"
       inkscape:path-effect="#path-effect428"
       inkscape:original-d="m 377.97618,-19.744047 c -0.50131,1.00529 -1.00529,2.013227 -1.51191,3.023809 -0.24932,-0.0026 -0.50131,-0.0026 -0.75594,0 0.003,0.249338 0.003,0.501322 0,0.755952 -0.24934,0.249339 -0.50133,0.501323 -0.75594,0.755953 0.003,0.249338 0.003,0.501322 0,0.755952 -0.24935,-0.0026 -0.50133,-0.0026 -0.75597,0 0.003,0.249339 0.003,0.501323 0,0.755953 0.003,0.249338 0.003,0.501322 0,0.755952 0.003,2.265211 0.003,4.5330684 0,6.8035712 0.003,0.2493383 0.003,0.5013225 0,0.7559524 0.003,0.2493383 0.003,0.5013225 0,0.7559524 -0.24934,0.2493384 -0.50131,0.5013225 -0.75594,0.7559525 0.003,0.7533065 0.003,1.5092588 0,2.2678571 -0.24934,-0.00265 -0.50133,-0.00265 -0.75597,0" />
    <path
       style="fill:none;stroke:#000000;stroke-width:0.26458332px;stroke-linecap:butt;stroke-linejoin:miter;stroke-opacity:1"
       d="m 395.36309,-15.964286 c 0,1.257275 0,2.517196 -0.12467,3.148479 -0.12468,0.631283 -0.37664,0.631283 -0.50395,0.881944 -0.12732,0.250662 -0.12732,0.75463 -0.50398,1.384594 -0.37666,0.6299645 -1.13261,1.3859069 -1.51192,1.8898763 -0.3793,0.5039693 -0.3793,0.7559534 -0.50396,0.8832684 -0.12466,0.127315 -0.37665,0.127315 -0.50397,0.2519842 -0.12731,0.1246691 -0.12731,0.3766532 -0.25198,0.6286386 -0.12467,0.2519855 -0.37665,0.5039747 -0.50396,1.007939 -0.12731,0.5039643 -0.12731,1.2599167 -0.25198,1.6392159 -0.12468,0.3792991 -0.37667,0.3792991 -0.50399,0.5039683 -0.12731,0.1246691 -0.12731,0.3766532 -0.25198,0.6286388 -0.12467,0.2519856 -0.37664,0.5039646 -0.50396,0.7559498 -0.12731,0.2519852 -0.12731,0.5039693 -0.25198,0.6312843 -0.12467,0.127315 -0.37666,0.127315 -0.50398,0.2519841 -0.12732,0.1246691 -0.12732,0.3766533 -0.37828,0.88041242 -0.25097,0.50375912 -0.75494,1.2597161 -1.26095,2.01872788"
       id="path430"
       inkscape:connector-curvature="0"
       inkscape:path-effect="#path-effect432"
       inkscape:original-d="m 395.36309,-15.964286 c 0.003,1.257275 0.003,2.517196 0,3.779762 -0.24935,-0.0026 -0.50131,-0.0026 -0.75594,0 0.003,0.501323 0.003,1.005291 0,1.511905 -0.75333,0.7533066 -1.50927,1.509259 -2.26788,2.2678573 0.003,0.2493383 0.003,0.5013224 0,0.7559524 -0.24932,-0.00265 -0.50131,-0.00265 -0.75594,0 0.003,0.2493383 0.003,0.5013224 0,0.7559521 -0.24934,0.2493383 -0.50133,0.5013225 -0.75594,0.7559524 0.003,0.7533066 0.003,1.509259 0,2.2678573 -0.24935,-0.00265 -0.50134,-0.00265 -0.75597,0 0.003,0.2493383 0.003,0.5013224 0,0.7559524 -0.24934,0.2493383 -0.50131,0.5013223 -0.75594,0.7559523 0.003,0.2493383 0.003,0.5013224 0,0.7559524 -0.24934,-0.00265 -0.50133,-0.00265 -0.75597,0 0.003,0.2493382 0.003,0.5013224 0,0.75595231 -0.5013,0.75330654 -1.00528,1.5092589 -1.51191,2.26785709" />
    <path
       style="fill:none;stroke:#000000;stroke-width:0.26458332px;stroke-linecap:butt;stroke-linejoin:miter;stroke-opacity:1"
       d="m 385.53572,8.2261905 c -1.00609,-0.2515209 -2.01402,-0.5035027 -2.64491,-0.7557194 -0.6309,-0.2522167 -0.88288,-0.5042025 -1.7635,-0.630194 -0.88061,-0.1259914 -2.39252,-0.1259914 -3.52645,-0.1259914 -1.13394,0 -1.88989,0 -2.39385,0.1246706 -0.50397,0.1246706 -0.75595,0.3766498 -1.00794,0.5039658 -0.25199,0.127316 -0.50396,0.127316 -0.75595,0.2519841 -0.25198,0.1246681 -0.50397,0.3766523 -0.88194,0.5039683 -0.37797,0.127316 -0.88195,0.127316 -1.13527,0.2519852 -0.25331,0.1246691 -0.25331,0.3766532 -0.37796,0.503968 -0.12466,0.1273149 -0.37665,0.1273149 -0.50397,0.251984 -0.12732,0.1246692 -0.12732,0.3766534 -0.25199,0.5039683 -0.12467,0.127315 -0.37666,0.127315 -0.50397,0.2519842 -0.1273,0.1246691 -0.1273,0.3766528 -0.25197,0.5039678 -0.12467,0.127315 -0.37666,0.127315 -0.50398,0.251985 -0.12732,0.124669 -0.12732,0.376653 -0.25199,0.628638 -0.12467,0.251986 -0.37664,0.50396 -0.50395,0.755948 -0.12732,0.251988 -0.12732,0.503972 -0.25199,0.631287 -0.12467,0.127315 -0.37666,0.127315 -0.50398,0.503968 -0.12732,0.376653 -0.12732,1.132605 -0.12732,1.888558 0,0.755952 0,1.511905 -0.1252,2.141602 -0.12519,0.629696 -0.37717,1.133657 -0.37663,1.387232 5.3e-4,0.253574 0.25249,0.253574 1.00844,0.253574 0.75596,0 2.01588,0 2.64451,-0.127315 0.62864,-0.127315 0.62864,-0.379299 1.00795,-0.503968 0.37931,-0.12467 1.13525,-0.12467 1.51191,-0.251985 0.37666,-0.127315 0.37666,-0.379299 0.50397,-0.503968 0.12732,-0.124669 0.37929,-0.124669 0.50396,-0.251984 0.12467,-0.127315 0.12467,-0.379299 0.37798,-0.503969 0.25331,-0.124669 0.75727,-0.124669 1.00794,-0.251984 0.25066,-0.127315 0.25066,-0.379299 0.50397,-0.503968 0.25331,-0.124669 0.75726,-0.124669 1.13524,-0.251985 0.37799,-0.127316 0.62996,-0.37929 1.00794,-0.503963 0.37798,-0.124673 0.88196,-0.124673 1.25993,-0.251987 0.37797,-0.127315 0.62996,-0.379301 1.25992,-0.50397 0.62996,-0.124669 1.63789,-0.124669 2.14053,-0.251984 0.50264,-0.127314 0.50264,-0.379299 0.88195,-0.503968 0.37931,-0.124669 1.13525,-0.124669 1.51191,-0.251984 0.37666,-0.127315 0.37666,-0.379299 0.62996,-0.503968 0.2533,-0.124669 0.75728,-0.124669 1.00793,-0.251984 0.25065,-0.127315 0.25065,-0.379299 0.37797,-0.503969 0.12732,-0.124669 0.37931,-0.124669 0.50398,-0.251984 0.12467,-0.127315 0.12467,-0.379299 0.25199,-0.503968 0.12732,-0.124669 0.37928,-0.124669 0.50395,-0.251984 0.12467,-0.127315 0.12467,-0.379299 0.25199,-0.631284 0.12732,-0.251986 0.37931,-0.5039698 0.50398,-1.259921 0.12467,-0.7559512 0.12467,-2.0158719 0.12467,-3.2731468"
       id="path434"
       inkscape:connector-curvature="0"
       inkscape:path-effect="#path-effect436"
       inkscape:original-d="m 385.53572,8.2261905 c -1.00531,-0.25463 -2.01324,-0.5066141 -3.02382,-0.7559524 -0.24934,-0.25463 -0.50133,-0.5066141 -0.75596,-0.7559524 -1.50924,-0.00265 -3.02115,-0.00265 -4.5357,0 -0.75332,-0.00265 -1.50927,-0.00265 -2.26785,0 -0.24935,0.2493383 -0.50133,0.5013224 -0.75597,0.7559524 -0.24934,-0.00265 -0.50131,-0.00265 -0.75594,0 -0.24934,0.2493383 -0.50133,0.5013224 -0.75597,0.7559524 -0.5013,-0.00265 -1.00528,-0.00265 -1.51191,0 0.003,0.2493383 0.003,0.5013224 0,0.7559521 -0.24931,-0.00265 -0.5013,-0.00265 -0.75594,0 0.003,0.2493383 0.003,0.5013225 0,0.7559524 -0.24934,-0.00265 -0.50133,-0.00265 -0.75594,0 0.003,0.2493383 0.003,0.501322 0,0.755952 -0.24934,-0.0026 -0.50133,-0.0026 -0.75597,0 0.003,0.249339 0.003,0.501323 0,0.755953 -0.24934,0.249338 -0.5013,0.501322 -0.75594,0.755952 0.003,0.249339 0.003,0.501323 0,0.755953 -0.24934,-0.0026 -0.50133,-0.0026 -0.75597,0 0.003,0.753306 0.003,1.509258 0,2.267857 0.003,0.753306 0.003,1.509259 0,2.267857 -0.24934,0.501322 -0.5013,1.005291 -0.75594,1.511905 0.25464,-0.0026 0.5066,-0.0026 0.75594,0 1.26257,-0.0026 2.52249,-0.0026 3.77976,0 0.003,-0.25463 0.003,-0.506614 0,-0.755953 0.75862,-0.0026 1.51456,-0.0026 2.26788,0 0.003,-0.25463 0.003,-0.506614 0,-0.755952 0.25463,-0.0026 0.5066,-0.0026 0.75594,0 0.003,-0.25463 0.003,-0.506614 0,-0.755953 0.50662,-0.0026 1.01058,-0.0026 1.51191,0 0.003,-0.25463 0.003,-0.506614 0,-0.755952 0.50662,-0.0026 1.01057,-0.0026 1.51191,0 0.25463,-0.25463 0.50659,-0.506614 0.75594,-0.755952 0.50662,-0.0026 1.0106,-0.0026 1.51191,0 0.25463,-0.25463 0.50662,-0.506614 0.75596,-0.755953 1.01058,-0.0026 2.01851,-0.0026 3.02379,0 0.003,-0.254629 0.003,-0.506614 0,-0.755952 0.75862,-0.0026 1.51456,-0.0026 2.26788,0 0.003,-0.25463 0.003,-0.506614 0,-0.755952 0.5066,-0.0026 1.01058,-0.0026 1.51188,0 0.003,-0.25463 0.003,-0.506614 0,-0.755953 0.25464,-0.0026 0.50663,-0.0026 0.75597,0 0.003,-0.25463 0.003,-0.506614 0,-0.755952 0.25464,-0.0026 0.5066,-0.0026 0.75594,0 0.003,-0.25463 0.003,-0.506614 0,-0.755953 0.25464,-0.25463 0.50663,-0.5066137 0.75597,-0.755952 0.003,-1.2625662 0.003,-2.5224869 0,-3.7797618" />
    <path
       style="fill:none;stroke:#000000;stroke-width:0.26458332px;stroke-linecap:butt;stroke-linejoin:miter;stroke-opacity:1"
       d="m 379.48809,29.392856 c -0.2512,1.004829 -0.50318,2.01276 -0.62956,2.768947 -0.12638,0.756186 -0.12638,1.260154 -0.25158,1.763859 -0.1252,0.503704 -0.37719,1.007672 -0.50398,1.637896 -0.12679,0.630224 -0.12679,1.386176 -0.25199,2.015876 -0.1252,0.629699 -0.37717,1.133659 -0.50396,1.763884 -0.12678,0.630225 -0.12678,1.386179 -0.12678,2.520108 0,1.133929 0,2.645832 0,5.039681 0,2.39385 0,5.669643 0,7.559525 0,1.889881 0,2.393849 0,2.771825 0,0.377976 0,0.62996 -0.12468,0.757275 -0.12467,0.127314 -0.37666,0.127314 -0.50397,0.377975 -0.12732,0.250661 -0.12732,0.754632 -0.25251,1.258332 -0.1252,0.5037 -0.37718,1.007672 -0.50397,1.511907 -0.12678,0.504234 -0.12678,1.008202 -0.25145,1.386179 -0.12467,0.377977 -0.37665,0.629966 -0.50396,1.133931 -0.12731,0.503965 -0.12731,1.259917 -0.12731,2.64583 0,1.385912 0,3.401786 0,4.787699 0,1.385912 0,2.141864 -0.12467,2.521163 -0.12468,0.379298 -0.37666,0.379298 -0.50398,0.503967 -0.12732,0.124669 -0.12732,0.376653 -0.25199,0.503969 -0.12467,0.127316 -0.37664,0.127316 -0.50396,0.251985 -0.12731,0.124669 -0.12731,0.376653 -0.25198,0.503968 -0.12467,0.127315 -0.37666,0.127315 -0.50398,0.251984 -0.12732,0.124669 -0.12732,0.376653 -0.25199,0.503968 -0.12467,0.127315 -0.37663,0.127315 -0.50395,0.251984 -0.12732,0.124669 -0.12732,0.376653 -0.25199,0.503968 -0.12467,0.127314 -0.37666,0.127314 -0.50398,0.251983 -0.12732,0.124669 -0.12732,0.376656 -0.25197,0.50397 -0.12466,0.127315 -0.37665,0.127315 -0.62917,0.377713 -0.25251,0.250397 -0.5045,0.754369 -0.75595,1.132606 -0.25145,0.378236 -0.50344,0.630221 -0.88115,0.882731 -0.37771,0.25251 -0.88168,0.504498 -1.13526,0.755955 -0.25358,0.251458 -0.25358,0.503441 -0.37825,0.630756 -0.12467,0.127315 -0.37663,0.127315 -0.50395,0.251984 -0.12732,0.124669 -0.12732,0.376653 -0.37798,0.754632 -0.25067,0.377979 -0.75462,0.881939 -1.00793,1.259917 -0.25331,0.377978 -0.25331,0.629962 -0.50398,1.007942 -0.25066,0.377979 -0.75462,0.881939 -1.00793,1.259916 -0.25331,0.377977 -0.25331,0.629961 -0.37799,0.757276 -0.12467,0.127315 -0.37663,0.127315 -0.50395,0.251984 -0.12731,0.124669 -0.12731,0.376653 -0.25198,0.628638 -0.12468,0.251986 -0.37667,0.503972 -0.50398,0.755954 -0.12732,0.251983 -0.12732,0.503967 -0.25199,0.631281 -0.12467,0.127315 -0.37664,0.127315 -0.50396,0.251984 -0.12731,0.124669 -0.12731,0.376653 -0.25199,0.503968 -0.12467,0.127315 -0.37666,0.127315 -0.50398,0.251984 -0.12731,0.124669 -0.12731,0.376653 -0.25197,0.503969 -0.12466,0.127316 -0.37665,0.127316 -0.50397,0.251985 -0.12731,0.124669 -0.12731,0.376653 -0.25198,0.503968 -0.12467,0.127315 -0.37666,0.127315 -0.50397,0.251984 -0.1273,0.124669 -0.1273,0.376653 -0.25198,0.503967 -0.12467,0.127315 -0.37665,0.127315 -0.50397,0.251984 -0.12732,0.124669 -0.12732,0.376653 -0.25199,0.628639 -0.12467,0.251985 -0.37664,0.503966 -1.00661,1.133931 -0.62996,0.629965 -1.6379,1.637896 -2.14319,2.267855 -0.50529,0.629959 -0.50529,0.881943 -0.62996,1.009258 -0.12467,0.127315 -0.37666,0.127315 -0.62917,0.377711 -0.2525,0.250395 -0.50449,0.754363 -0.75595,1.007937 -0.25146,0.253573 -0.50342,0.253573 -0.63074,0.504234 -0.12732,0.250661 -0.12732,0.754629 -0.25199,1.007933 -0.12467,0.25331 -0.37666,0.25331 -0.50398,0.37798 -0.12731,0.12467 -0.12731,0.37665 -0.25251,0.75437 -0.1252,0.37771 -0.37718,0.88167 -0.75463,1.38591 -0.37745,0.50423 -0.88141,1.00819 -1.13471,1.38617 -0.25331,0.37798 -0.25331,0.62996 -0.37851,1.00768 -0.1252,0.37771 -0.37718,0.88168 -0.75493,1.5117 -0.37776,0.63003 -0.88173,1.38598 -1.13472,2.01614 -0.253,0.63016 -0.253,1.13413 -0.3782,1.63783 -0.1252,0.5037 -0.37719,1.00767 -0.62918,1.51164 -0.25198,0.50397 -0.50396,1.00794 -0.75542,1.38618 -0.25146,0.37824 -0.50344,0.63022 -0.63076,1.0082 -0.12732,0.37798 -0.12732,0.88194 -0.25198,1.25992 -0.12467,0.37797 -0.37665,0.62996 -0.50397,1.00793 -0.12731,0.37798 -0.12731,0.88195 -0.25198,1.25993 -0.12467,0.37797 -0.37665,0.62997 -0.50396,1.00794 -0.12731,0.37797 -0.12731,0.88194 -0.25198,1.25992 -0.12468,0.37797 -0.37666,0.62995 -0.50398,1.00793 -0.12732,0.37798 -0.12732,0.88194 -0.25199,1.25992 -0.12467,0.37798 -0.37664,0.62996 -0.50396,1.00793 -0.12731,0.37798 -0.12731,0.88195 -0.25198,1.13525 -0.12467,0.25331 -0.37666,0.25331 -0.50398,0.62996 -0.12732,0.37666 -0.12732,1.13261 -0.25199,1.63658 -0.12467,0.50397 -0.37663,0.75595 -0.50395,1.13393 -0.12732,0.37798 -0.12732,0.88195 -0.25199,1.25992 -0.12467,0.37798 -0.37666,0.62996 -0.50398,1.00794 -0.12732,0.37798 -0.12732,0.88194 -0.25198,1.13525 -0.12465,0.25331 -0.37664,0.25331 -0.50396,0.50397 -0.12732,0.25066 -0.12732,0.75463 -0.25199,1.13261 -0.12467,0.37797 -0.37665,0.62996 -0.50396,1.00793 -0.12731,0.37798 -0.12731,0.88194 -0.25198,1.13525 -0.12467,0.25331 -0.37666,0.25331 -0.62865,0.25331 -0.25199,0 -0.50395,0 -0.63127,-0.12732 -0.12732,-0.12731 -0.12732,-0.3793 -0.25199,-0.50397 -0.12467,-0.12466 -0.37666,-0.12466 -0.63129,-0.12466"
       id="path438"
       inkscape:connector-curvature="0"
       inkscape:path-effect="#path-effect440"
       inkscape:original-d="m 379.48809,29.392856 c -0.24935,1.005292 -0.50131,2.013228 -0.75594,3.023812 0.003,0.501321 0.003,1.005289 0,1.511903 -0.24935,0.501322 -0.50134,1.005289 -0.75597,1.511906 0.003,0.753305 0.003,1.509257 0,2.267857 -0.24935,0.501322 -0.50131,1.00529 -0.75594,1.511903 0.003,0.753306 0.003,1.50926 0,2.267858 0.003,1.50926 0.003,3.021163 0,4.535715 0.003,3.273147 0.003,6.54894 0,9.827379 0.003,0.501324 0.003,1.005292 0,1.511906 0.003,0.249338 0.003,0.501322 0,0.755951 -0.24935,-0.0026 -0.50134,-0.0026 -0.75597,0 0.003,0.501322 0.003,1.005293 0,1.511906 -0.24932,0.501322 -0.50131,1.00529 -0.75594,1.511903 0.003,0.501325 0.003,1.005293 0,1.511906 -0.24934,0.249338 -0.50133,0.501322 -0.75594,0.755952 0.003,0.753308 0.003,1.50926 0,2.267857 0.003,2.013228 0.003,4.029102 0,6.047619 0.003,0.753308 0.003,1.50926 0,2.267857 -0.24935,-0.0026 -0.50133,-0.0026 -0.75597,0 0.003,0.249338 0.003,0.501322 0,0.755954 -0.24934,-0.0026 -0.50131,-0.0026 -0.75594,0 0.003,0.249338 0.003,0.501322 0,0.755952 -0.24934,-0.0026 -0.50133,-0.0026 -0.75597,0 0.003,0.249338 0.003,0.501322 0,0.755952 -0.24934,-0.0026 -0.5013,-0.0026 -0.75594,0 0.003,0.249338 0.003,0.501322 0,0.755951 -0.24934,-0.0026 -0.50133,-0.0026 -0.75597,0 0.003,0.249338 0.003,0.501325 0,0.755954 -0.24931,-0.0026 -0.5013,-0.0026 -0.75594,0 -0.24934,0.501322 -0.50133,1.00529 -0.75594,1.511904 -0.24934,0.249338 -0.50133,0.501322 -0.75597,0.755954 -0.5013,0.249338 -1.00528,0.501322 -1.51191,0.755952 0.003,0.249338 0.003,0.501321 0,0.755951 -0.24934,-0.0026 -0.5013,-0.0026 -0.75594,0 0.003,0.249338 0.003,0.501322 0,0.755952 -0.50133,0.501324 -1.00528,1.005292 -1.5119,1.511906 0.003,0.249338 0.003,0.501322 0,0.755951 -0.50134,0.501322 -1.00529,1.005293 -1.51191,1.511906 0.003,0.249338 0.003,0.501322 0,0.755952 -0.24935,-0.0026 -0.50131,-0.0026 -0.75594,0 0.003,0.249338 0.003,0.501322 0,0.755951 -0.24935,0.249338 -0.50134,0.501325 -0.75597,0.755955 0.003,0.249338 0.003,0.501322 0,0.755951 -0.24934,-0.0026 -0.50131,-0.0026 -0.75594,0 0.003,0.249338 0.003,0.501322 0,0.755952 -0.24935,-0.0026 -0.50134,-0.0026 -0.75597,0 0.003,0.249338 0.003,0.501322 0,0.755954 -0.24932,-0.0026 -0.50131,-0.0026 -0.75594,0 0.003,0.249338 0.003,0.501322 0,0.755952 -0.24934,-0.0026 -0.50133,-0.0026 -0.75594,0 0.003,0.249338 0.003,0.501322 0,0.755951 -0.24935,-0.0026 -0.50133,-0.0026 -0.75597,0 0.003,0.249338 0.003,0.501322 0,0.755952 -0.24934,0.249338 -0.50131,0.501325 -0.75594,0.755954 -1.00531,1.00529 -2.01324,2.013225 -3.02382,3.023809 0.003,0.249338 0.003,0.501322 0,0.755952 -0.24934,-0.0026 -0.50133,-0.0026 -0.75594,0 -0.24934,0.501322 -0.50133,1.00529 -0.75597,1.511906 -0.24934,-0.0026 -0.5013,-0.0026 -0.75594,0 0.003,0.501322 0.003,1.00529 0,1.511904 -0.24934,-0.003 -0.50133,-0.003 -0.75596,0 0.003,0.24934 0.003,0.50132 0,0.75595 -0.24935,0.50133 -0.50131,1.00529 -0.75595,1.51191 -0.50133,0.50132 -1.00528,1.00529 -1.5119,1.5119 0.003,0.24934 0.003,0.50132 0,0.75595 -0.24935,0.50133 -0.50134,1.00529 -0.75595,1.51191 -0.50133,0.75331 -1.00531,1.50926 -1.5119,2.26785 0.003,0.50133 0.003,1.0053 0,1.51191 -0.24935,0.50132 -0.50134,1.00529 -0.75597,1.51191 -0.24934,0.50132 -0.50131,1.00529 -0.75594,1.5119 -0.24935,0.24934 -0.50133,0.50132 -0.75597,0.75595 0.003,0.50133 0.003,1.00529 0,1.51191 -0.24932,0.24934 -0.50131,0.50132 -0.75594,0.75595 0.003,0.50132 0.003,1.00529 0,1.5119 -0.24934,0.24934 -0.50133,0.50133 -0.75594,0.75596 0.003,0.50132 0.003,1.00529 0,1.5119 -0.24935,0.24934 -0.50133,0.50132 -0.75597,0.75595 0.003,0.50133 0.003,1.00529 0,1.51191 -0.24934,0.24934 -0.50131,0.50132 -0.75594,0.75595 0.003,0.50132 0.003,1.00529 0,1.5119 -0.24934,-0.003 -0.50133,-0.003 -0.75597,0 0.003,0.75331 0.003,1.50926 0,2.26786 -0.24934,0.24934 -0.5013,0.50132 -0.75594,0.75596 0.003,0.50132 0.003,1.00529 0,1.5119 -0.24934,0.24934 -0.50133,0.50132 -0.75597,0.75595 0.003,0.50133 0.003,1.00529 0,1.51191 -0.24931,-0.003 -0.5013,-0.003 -0.75594,0 0.003,0.50132 0.003,1.00529 0,1.5119 -0.24934,0.24934 -0.50133,0.50132 -0.75594,0.75595 0.003,0.50133 0.003,1.00529 0,1.51191 -0.24934,-0.003 -0.50133,-0.003 -0.75597,0 -0.24934,-0.003 -0.5013,-0.003 -0.75594,0 0.003,-0.25463 0.003,-0.50662 0,-0.75595 -0.24934,-0.003 -0.50133,-0.003 -0.75596,0" />
    <path
       style="fill:none;stroke:#000000;stroke-width:0.26458332px;stroke-linecap:butt;stroke-linejoin:miter;stroke-opacity:1"
       d="m 376.46427,76.261904 c 1.00769,1.259606 2.01562,2.519521 2.51972,3.274311 0.5041,0.75479 0.5041,1.006774 0.63009,1.26008 0.126,0.253307 0.37798,0.505292 0.50398,0.755952 0.12599,0.250661 0.12599,0.502645 0.25329,0.62996 0.12731,0.127315 0.3793,0.127315 0.50397,0.377977 0.12468,0.250662 0.12468,0.75463 0.252,1.007937 0.12731,0.253307 0.3793,0.253307 0.50396,0.629959 0.12466,0.376653 0.12466,1.132608 0.25065,1.637898 0.126,0.50529 0.37798,0.757275 0.50398,1.133928 0.12599,0.376653 0.12599,0.88062 0.25198,1.259924 0.126,0.379304 0.37797,0.631278 0.50396,1.133924 0.12599,0.502646 0.12599,1.2586 0.25199,1.763892 0.12599,0.505292 0.37798,0.757276 0.50398,1.259919 0.12599,0.502644 0.12599,1.258598 0.25331,1.637897 0.12732,0.379299 0.37928,0.379299 0.50395,0.755952 0.12467,0.376653 0.12467,1.132607 0.12467,3.400461 0,2.267855 0,6.047625 0,9.071425 0,3.02381 0,5.29167 0,6.92957 0,1.6379 0,2.64583 0.126,3.27711 0.12599,0.63129 0.37798,0.88328 0.50398,1.13393 0.12599,0.25066 0.12599,0.50265 0.2533,0.62996 0.1273,0.12732 0.37929,0.12732 0.50396,0.25199 0.12467,0.12467 0.12467,0.37665 0.25066,0.62996 0.126,0.25331 0.37798,0.5053 0.6297,0.88274 0.25171,0.37745 0.5037,0.88141 0.62996,1.2586 0.12626,0.37718 0.12626,0.62916 0.25225,0.88247 0.126,0.25331 0.37797,0.50528 0.50396,0.75595 0.12599,0.25066 0.12599,0.50264 0.25331,0.62995 0.12732,0.12732 0.37931,0.12732 0.50398,0.50397 0.12467,0.37666 0.12467,1.13261 0.25066,1.6379 0.12599,0.5053 0.37796,0.75728 0.50396,1.25992 0.12599,0.50265 0.12599,1.2586 0.25331,1.6379 0.12731,0.3793 0.3793,0.3793 0.50398,0.88194 0.12467,0.50265 0.12467,1.51059 0.12467,3.14848 0,1.6379 0,3.90576 0,5.29167 0,1.38591 0,1.88988 0,2.26786 0,0.37798 0,0.62996 0,0.62996 0,0 0,-0.25198 0,-0.88195 0,-0.62996 0,-1.63789 -0.1262,-2.77152 -0.1262,-1.13362 -0.37819,-2.39354 -0.63024,-3.275 -0.25204,-0.88145 -0.50402,-1.38542 -0.62975,-2.01618 -0.12572,-0.63075 -0.12572,-1.3867 -0.12572,-2.14"
       id="path442"
       inkscape:connector-curvature="0"
       inkscape:path-effect="#path-effect444"
       inkscape:original-d="m 376.46427,76.261904 c 1.0106,1.257276 2.01853,2.517195 3.02382,3.779763 0.003,0.249338 0.003,0.501322 0,0.755952 0.25463,0.249338 0.50662,0.501321 0.75596,0.755951 0.003,0.249338 0.003,0.501322 0,0.755952 0.25461,-0.0026 0.5066,-0.0026 0.75595,0 0.003,0.501324 0.003,1.005292 0,1.511906 0.25463,-0.0026 0.50662,-0.0026 0.75594,0 0.003,0.753305 0.003,1.50926 0,2.267857 0.25463,0.249338 0.50662,0.501322 0.75596,0.755952 0.003,0.501322 0.003,1.005289 0,1.511906 0.25464,0.249338 0.5066,0.501322 0.75594,0.755951 0.003,0.753306 0.003,1.50926 0,2.267858 0.25464,0.249338 0.50663,0.501322 0.75597,0.755951 0.003,0.753306 0.003,1.50926 0,2.267858 0.25464,-0.0026 0.5066,-0.0026 0.75594,0 0.003,0.753306 0.003,1.50926 0,2.267857 0.003,3.777112 0.003,7.556882 0,11.339282 0.003,2.26521 0.003,4.53307 0,6.80358 0.003,1.00529 0.003,2.01322 0,3.0238 0.25464,0.24934 0.50663,0.50133 0.75597,0.75596 0.003,0.24933 0.003,0.50132 0,0.75595 0.25461,-0.003 0.5066,-0.003 0.75594,0 0.003,0.24934 0.003,0.50132 0,0.75595 0.25464,0.24934 0.50663,0.50132 0.75594,0.75595 0.25464,0.50133 0.50663,1.00529 0.75597,1.51191 0.003,0.24934 0.003,0.50132 0,0.75595 0.25464,0.24934 0.5066,0.50132 0.75594,0.75595 0.003,0.24934 0.003,0.50132 0,0.75595 0.25464,-0.003 0.50663,-0.003 0.75597,0 0.003,0.75331 0.003,1.50926 0,2.26786 0.25463,0.24934 0.5066,0.50132 0.75594,0.75596 0.003,0.7533 0.003,1.50925 0,2.26785 0.25463,-0.003 0.50662,-0.003 0.75597,0 0.003,1.00529 0.003,2.01323 0,3.02381 0.003,2.26521 0.003,4.53307 0,6.80357 0.003,0.50132 0.003,1.00529 0,1.51191 0.003,0.24934 0.003,0.50132 0,0.75595 0.003,-0.25463 0.003,-0.50661 0,-0.75595 0.003,-1.01059 0.003,-2.01852 0,-3.02381 -0.24935,-1.26257 -0.50134,-2.52249 -0.75597,-3.77976 -0.24934,-0.50662 -0.50131,-1.01059 -0.75594,-1.51191 0.003,-0.7586 0.003,-1.51455 0,-2.26785" />
    <path
       style="fill:none;stroke:#000000;stroke-width:0.26458332px;stroke-linecap:butt;stroke-linejoin:miter;stroke-opacity:1"
       d="m 378.73215,30.14881 c -1.50977,-0.251628 -3.02168,-0.503613 -4.28135,-0.629783 -1.25966,-0.126171 -2.26759,-0.126171 -2.89888,-0.252157 -0.63129,-0.125986 -0.88327,-0.377975 -1.25993,-0.503971 -0.37666,-0.125995 -0.88061,-0.125995 -1.38537,-0.251717 -0.50476,-0.125723 -1.00874,-0.37771 -1.38725,-0.629963 -0.37851,-0.252253 -0.63048,-0.504227 -1.13314,-0.630223 -0.50265,-0.125995 -1.25859,-0.125995 -2.64451,-0.125995 -1.38591,0 -3.40177,0 -5.03967,0 -1.6379,0 -2.89782,0 -3.52911,-0.127316 -0.63128,-0.127316 -0.63128,-0.3793 -0.75595,-0.503969 -0.12467,-0.124669 -0.37666,-0.124669 -0.62996,-0.25066 -0.2533,-0.125991 -0.50529,-0.377975 -0.88193,-0.503968 -0.37665,-0.125993 -0.88063,-0.125993 -1.13394,-0.253308 -0.25331,-0.127315 -0.25331,-0.379299 -0.50397,-0.503969 -0.25065,-0.124669 -0.75463,-0.124669 -1.00794,-0.251984 -0.25331,-0.127314 -0.25331,-0.379298 -0.50397,-0.503968 -0.25065,-0.124669 -0.75463,-0.124669 -1.13392,-0.250661 -0.3793,-0.125992 -0.63128,-0.377977 -1.00793,-0.503969 -0.37665,-0.125991 -0.88063,-0.125991 -1.13394,-0.253306 -0.25331,-0.127315 -0.25331,-0.379299 -0.37798,-0.503969 -0.12467,-0.124669 -0.37664,-0.124669 -1.1326,-0.124669 -0.75595,0 -2.01587,0 -2.77182,0 -0.75595,0 -1.00794,0 -1.13526,-0.127315 -0.12732,-0.127315 -0.12732,-0.379299 -0.37797,-0.503968 -0.25065,-0.124669 -0.75463,-0.124669 -1.00795,-0.251984 -0.25331,-0.127315 -0.25331,-0.379299 -0.62996,-0.503968 -0.37664,-0.124669 -1.13258,-0.124669 -1.88955,-0.376446 -0.75698,-0.251778 -1.51294,-0.755755 -2.01589,-1.007942 -0.50295,-0.252186 -0.75494,-0.252186 -1.00824,-0.378175 -0.2533,-0.125988 -0.50529,-0.377977 -0.75595,-0.50397 -0.25067,-0.125993 -0.50266,-0.125993 -0.62997,-0.253308 -0.1273,-0.127315 -0.1273,-0.379299 -0.25197,-0.503969 -0.12467,-0.124669 -0.37666,-0.124669 -0.62997,-0.250665 -0.25331,-0.125996 -0.50528,-0.37797 -0.75594,-0.503963 -0.25067,-0.125993 -0.50266,-0.125993 -0.62998,-0.253308 -0.12731,-0.127315 -0.12731,-0.379299 -0.37797,-0.503969 -0.25065,-0.124669 -0.75463,-0.124669 -1.00794,-0.251984 -0.25331,-0.127315 -0.25331,-0.379299 -0.50397,-0.503968 -0.25065,-0.124669 -0.75462,-0.124669 -1.13392,-0.250662 -0.37929,-0.125994 -0.63128,-0.377973 -1.25991,-0.503966 -0.62864,-0.125993 -1.63657,-0.125993 -2.14188,-0.253308 -0.5053,-0.127315 -0.5053,-0.379299 -0.88195,-0.503969 -0.37664,-0.124669 -1.13258,-0.124669 -1.8912,-0.124669"
       id="path446"
       inkscape:connector-curvature="0"
       inkscape:path-effect="#path-effect448"
       inkscape:original-d="m 378.73215,30.14881 c -1.50927,-0.25463 -3.02118,-0.506616 -4.53573,-0.755954 -1.00528,-0.0026 -2.01321,-0.0026 -3.02382,0 -0.24931,-0.25463 -0.5013,-0.506614 -0.75594,-0.755952 -0.50133,-0.0026 -1.00528,-0.0026 -1.51191,0 -0.5013,-0.25463 -1.00528,-0.506613 -1.51191,-0.755951 -0.24934,-0.25463 -0.5013,-0.506614 -0.75594,-0.755952 -0.75332,-0.0026 -1.50926,-0.0026 -2.26785,0 -2.01324,-0.0026 -4.0291,-0.0026 -6.04763,0 -1.25727,-0.0026 -2.51719,-0.0026 -3.77976,0 0.003,-0.254632 0.003,-0.506616 0,-0.755954 -0.24934,-0.0026 -0.50133,-0.0026 -0.75594,0 -0.24934,-0.25463 -0.50133,-0.506614 -0.75597,-0.755952 -0.5013,-0.0026 -1.00528,-0.0026 -1.5119,0 0.003,-0.25463 0.003,-0.506614 0,-0.755953 -0.50131,-0.0026 -1.00529,-0.0026 -1.51191,0 0.003,-0.254629 0.003,-0.506613 0,-0.755952 -0.50131,-0.0026 -1.00529,-0.0026 -1.51189,0 -0.24934,-0.25463 -0.50133,-0.506614 -0.75596,-0.755952 -0.50131,-0.0026 -1.00529,-0.0026 -1.51191,0 0.003,-0.25463 0.003,-0.506614 0,-0.755953 -0.24934,-0.0026 -0.50131,-0.0026 -0.75594,0 -1.25728,-0.0026 -2.5172,-0.0026 -3.77976,0 -0.24934,-0.0026 -0.50133,-0.0026 -0.75597,0 0.003,-0.25463 0.003,-0.506614 0,-0.755952 -0.5013,-0.0026 -1.00528,-0.0026 -1.51191,0 0.003,-0.25463 0.003,-0.506614 0,-0.755952 -0.75329,-0.0026 -1.50923,-0.0026 -2.26785,0 -0.75329,-0.506614 -1.50926,-1.010583 -2.26785,-1.511905 -0.24934,-0.0026 -0.50133,-0.0026 -0.75596,0 -0.24932,-0.25463 -0.50131,-0.506614 -0.75594,-0.755952 -0.24935,-0.0026 -0.50134,-0.0026 -0.75595,0 0.003,-0.25463 0.003,-0.506614 0,-0.755953 -0.24934,-0.0026 -0.50133,-0.0026 -0.75596,0 -0.24935,-0.25463 -0.50131,-0.506614 -0.75594,-0.755952 -0.24935,-0.0026 -0.50134,-0.0026 -0.75597,0 0.003,-0.25463 0.003,-0.506614 0,-0.755953 -0.50131,-0.0026 -1.00529,-0.0026 -1.51191,0 0.003,-0.25463 0.003,-0.506614 0,-0.755952 -0.50131,-0.0026 -1.00528,-0.0026 -1.51188,0 -0.24935,-0.25463 -0.50133,-0.506614 -0.75597,-0.755952 -1.00528,-0.0026 -2.01321,-0.0026 -3.02382,0 0.003,-0.25463 0.003,-0.506614 0,-0.755953 -0.75329,-0.0026 -1.50923,-0.0026 -2.26785,0" />
    <path
       style="fill:none;stroke:#000000;stroke-width:0.26458332px;stroke-linecap:butt;stroke-linejoin:miter;stroke-opacity:1"
       d="m 408.21427,66.434522 c 0,0 -0.75594,0 -0.75594,0"
       id="path450"
       inkscape:connector-curvature="0"
       inkscape:path-effect="#path-effect452"
       inkscape:original-d="m 408.21427,66.434522 h -0.75594" />
    <path
       style="fill:none;stroke:#000000;stroke-width:0.26458332px;stroke-linecap:butt;stroke-linejoin:miter;stroke-opacity:1"
       d="m 379.48809,29.392856 c 1.51349,0.504497 3.0254,1.008467 3.78056,1.384855 0.75516,0.376389 0.75516,0.628373 0.88248,0.755687 0.12732,0.127315 0.37928,0.127315 0.62995,0.253308 0.25066,0.125994 0.50265,0.377978 0.75595,0.50397 0.2533,0.125992 0.50529,0.125992 0.75595,0.251987 0.25067,0.125996 0.50265,0.377984 0.75596,0.50397 0.2533,0.125986 0.50529,0.125986 0.62996,0.250655 0.12467,0.124669 0.12467,0.376653 0.37797,0.503968 0.2533,0.127315 0.75728,0.127315 1.00795,0.251984 0.25066,0.124669 0.25066,0.376653 0.37798,0.503968 0.12731,0.127314 0.37928,0.127314 0.62994,0.253305 0.25067,0.125991 0.50266,0.377977 0.75596,0.50397 0.2533,0.125994 0.50529,0.125994 0.75595,0.251987 0.25066,0.125993 0.50265,0.377982 0.88194,0.50397 0.3793,0.125988 0.88328,0.125988 1.25993,0.251979 0.37665,0.12599 0.62864,0.377974 1.00793,0.503968 0.37929,0.125993 0.88327,0.125993 1.13394,0.250662 0.25066,0.124669 0.25066,0.376653 0.37797,0.503969 0.1273,0.127316 0.37929,0.127316 0.63128,0.127316 0.25199,0 0.50398,0 1.25992,0 0.75594,0 2.01589,0 2.77183,0 0.75594,0 1.00793,0 1.25992,0 0.25199,0 0.50398,0 0.75463,0.125993 0.25065,0.125993 0.50264,0.377977 1.13393,0.503968 0.63128,0.125991 1.63921,0.125991 3.40311,0.125991 1.76389,0 4.28373,0 6.17361,0 1.88988,0 3.1498,0 3.90576,0 0.75595,0 1.00794,0 1.25992,0 0.25197,0 0.50396,0 0.75594,-0.127316 0.25199,-0.127316 0.50396,-0.379295 1.00794,-0.503966 0.50397,-0.12467 1.25992,-0.12467 1.63658,-0.251986 0.37666,-0.127316 0.37666,-0.3793 0.50397,-0.503969 0.1273,-0.124669 0.37928,-0.124669 0.50396,-0.251984 0.12467,-0.127315 0.12467,-0.379299 0.25199,-0.503968 0.12731,-0.124669 0.3793,-0.124669 0.63075,-0.378239 0.25145,-0.25357 0.50344,-0.757538 0.75595,-1.007937 0.25252,-0.250399 0.50448,-0.250399 0.62916,-0.377713 0.12467,-0.127315 0.12467,-0.379299 0.25199,-0.503968 0.12731,-0.124669 0.3793,-0.124669 0.50398,-0.251984 0.12467,-0.127315 0.12467,-0.379299 0.25199,-0.503968 0.12731,-0.124669 0.37927,-0.124669 0.50395,-0.251984 0.12467,-0.127315 0.12467,-0.379298 0.25199,-0.503967 0.12731,-0.124669 0.3793,-0.124669 0.50397,-0.251986 0.12467,-0.127316 0.12467,-0.3793 0.25198,-0.63128 0.12731,-0.251979 0.37929,-0.503968 0.50396,-0.755954 0.12467,-0.251985 0.12467,-0.503969 0.25199,-0.628638 0.12732,-0.124669 0.37931,-0.124669 0.50397,-0.377977 0.12466,-0.253308 0.12466,-0.757276 0.25198,-1.007937 0.12731,-0.250661 0.3793,-0.250661 0.50397,-0.62996 0.12467,-0.379298 0.12467,-1.13525 0.25199,-1.511904 0.12732,-0.376654 0.37928,-0.376654 0.50395,-0.629961 0.12467,-0.253307 0.12467,-0.757275 0.25199,-1.135252 0.12732,-0.377977 0.37931,-0.629961 0.50398,-1.007937 0.12467,-0.377975 0.12467,-0.881943 0.25199,-1.259923 0.12731,-0.37798 0.37928,-0.629954 0.50395,-0.88194 0.12467,-0.251985 0.12467,-0.503969 0.12467,-0.755953 0,-0.251984 0,-0.503968 0,-1.259921 0,-0.755952 0,-2.015873 0,-3.02381 0,-1.007936 0,-1.763888 -0.12467,-2.140542 -0.12467,-0.376653 -0.37663,-0.376653 -0.50395,-0.755952 -0.12732,-0.379299 -0.12732,-1.135251 -0.25331,-1.637895 -0.126,-0.502645 -0.37799,-0.754629 -0.50398,-1.259921 -0.126,-0.505292 -0.126,-1.2612448 -0.25199,-1.7638915 -0.12599,-0.5026468 -0.37796,-0.7546209 -0.50396,-1.5118997 -0.12599,-0.7572788 -0.12599,-2.0171995 -0.12599,-2.7731519 0,-0.7559524 0,-1.0079366 -0.12467,-1.1326058 -0.12467,-0.1246691 -0.37666,-0.1246691 -0.50397,-0.6299602 -0.12732,-0.505291 -0.12732,-1.5132276 -0.25198,-2.0158729 -0.12466,-0.50264535 -0.37665,-0.50264535 -0.50397,-0.75595239 -0.12732,-0.25330703 -0.12732,-0.75727529 -0.25331,-1.13393001 -0.12599,-0.3766547 -0.37798,-0.6286439 -0.50396,-0.8819469 -0.12599,-0.2533031 -0.12599,-0.5052872 -0.25198,-0.7559482 -0.126,-0.250661 -0.37798,-0.5026467 -0.50398,-0.8819452 -0.12599,-0.3792985 -0.12599,-0.8832668 -0.25066,-1.1339281 C 426.86374,-4.625 426.61178,-4.625 426.48447,-4.8783071 c -0.12732,-0.253307 -0.12732,-0.7572752 -0.25199,-1.0079365 -0.12468,-0.2506612 -0.37667,-0.2506612 -0.50398,-0.5039683 -0.12732,-0.253307 -0.12732,-0.757275 -0.25199,-1.0079362 -0.12468,-0.2506612 -0.37664,-0.2506612 -0.50395,-0.5039683 -0.12732,-0.253307 -0.12732,-0.7572753 -0.25199,-1.0079365 -0.12468,-0.2506612 -0.37667,-0.2506612 -0.75543,-0.3763879 -0.37877,-0.1257266 -0.88274,-0.3777188 -1.38775,-0.6302258"
       id="path454"
       inkscape:connector-curvature="0"
       inkscape:path-effect="#path-effect456"
       inkscape:original-d="m 379.48809,29.392856 c 1.51455,0.501324 3.02646,1.005292 4.53572,1.511906 0.003,0.249338 0.003,0.501322 0,0.755951 0.25464,-0.0026 0.5066,-0.0026 0.75594,0 0.25464,0.249338 0.50663,0.501322 0.75597,0.755955 0.25461,-0.0026 0.5066,-0.0026 0.75594,0 0.25464,0.249338 0.50663,0.501321 0.75594,0.755951 0.25464,-0.0026 0.50663,-0.0026 0.75597,0 0.003,0.249338 0.003,0.501322 0,0.755952 0.5066,-0.0026 1.01058,-0.0026 1.51191,0 0.003,0.249338 0.003,0.501322 0,0.755951 0.25463,-0.0026 0.5066,-0.0026 0.75594,0 0.25463,0.249338 0.50662,0.501325 0.75597,0.755955 0.25461,-0.0026 0.5066,-0.0026 0.75594,0 0.25463,0.249338 0.50662,0.501322 0.75594,0.755951 0.50662,-0.0026 1.0106,-0.0026 1.51191,0 0.25463,0.249338 0.50662,0.501322 0.75597,0.755952 0.50659,-0.0026 1.01057,-0.0026 1.5119,0 0.003,0.249338 0.003,0.501322 0,0.755954 0.25461,-0.0026 0.5066,-0.0026 0.75594,0 0.25464,-0.0026 0.50663,-0.0026 0.75595,0 1.26256,-0.0026 2.52251,-0.0026 3.77978,0 0.25461,-0.0026 0.5066,-0.0026 0.75594,0 0.25464,-0.0026 0.50663,-0.0026 0.75594,0 0.25464,0.249338 0.50663,0.501322 0.75597,0.755952 1.01058,-0.0026 2.01851,-0.0026 3.02382,0 2.52248,-0.0026 5.04232,-0.0026 7.55951,0 1.26257,-0.0026 2.52249,-0.0026 3.77976,0 0.25464,-0.0026 0.50663,-0.0026 0.75594,0 0.25464,-0.0026 0.50663,-0.0026 0.75597,0 0.25463,-0.25463 0.5066,-0.506614 0.75594,-0.755952 0.75861,-0.0026 1.51456,-0.0026 2.26788,0 0.003,-0.254632 0.003,-0.506616 0,-0.755954 0.25461,-0.0026 0.50659,-0.0026 0.75594,0 0.003,-0.25463 0.003,-0.506614 0,-0.755952 0.25463,-0.0026 0.50662,-0.0026 0.75594,0 0.25463,-0.506613 0.50662,-1.010581 0.75597,-1.511906 0.25463,-0.0026 0.50659,-0.0026 0.75594,0 0.003,-0.254629 0.003,-0.506613 0,-0.755951 0.25463,-0.0026 0.50662,-0.0026 0.75597,0 0.003,-0.25463 0.003,-0.506614 0,-0.755952 0.25463,-0.0026 0.50659,-0.0026 0.75594,0 0.003,-0.25463 0.003,-0.506613 0,-0.755951 0.25463,-0.0026 0.50662,-0.0026 0.75596,0 0.003,-0.254633 0.003,-0.506617 0,-0.755955 0.25461,-0.254629 0.5066,-0.506613 0.75594,-0.755951 0.003,-0.25463 0.003,-0.506614 0,-0.755952 0.25464,-0.0026 0.50663,-0.0026 0.75595,0 0.003,-0.506616 0.003,-1.010584 0,-1.511906 0.25463,-0.0026 0.50662,-0.0026 0.75596,0 0.003,-0.758597 0.003,-1.514549 0,-2.267857 0.25464,-0.0026 0.5066,-0.0026 0.75594,0 0.003,-0.506614 0.003,-1.010582 0,-1.511905 0.25464,-0.254629 0.50663,-0.506613 0.75597,-0.755952 0.003,-0.506614 0.003,-1.010582 0,-1.511905 0.25464,-0.25463 0.5066,-0.506614 0.75594,-0.755952 0.003,-0.25463 0.003,-0.506614 0,-0.755952 0.003,-0.25463 0.003,-0.506614 0,-0.755953 0.003,-1.262566 0.003,-2.522487 0,-3.779762 0.003,-0.758598 0.003,-1.51455 0,-2.267857 -0.24934,-0.0026 -0.5013,-0.0026 -0.75594,0 0.003,-0.758598 0.003,-1.51455 0,-2.267857 -0.24934,-0.25463 -0.50133,-0.506614 -0.75597,-0.755952 0.003,-0.758598 0.003,-1.5145508 0,-2.2678574 -0.24934,-0.2546297 -0.5013,-0.5066138 -0.75594,-0.7559521 0.003,-1.2625665 0.003,-2.5224872 0,-3.7797621 0.003,-0.2546299 0.003,-0.5066141 0,-0.7559524 -0.24934,-0.00265 -0.50133,-0.00265 -0.75596,0 0.003,-1.0105821 0.003,-2.0185187 0,-3.02380935 -0.24932,-0.002646 -0.50131,-0.002646 -0.75595,0 0.003,-0.50661407 0.003,-1.01058233 0,-1.51190474 -0.24934,-0.25462991 -0.50133,-0.50661411 -0.75594,-0.75595231 0.003,-0.25463 0.003,-0.5066141 0,-0.7559524 -0.24934,-0.25463 -0.50133,-0.506614 -0.75596,-0.7559523 0.003,-0.5066141 0.003,-1.0105824 0,-1.5119049 -0.24935,-0.00265 -0.50131,-0.00265 -0.75594,0 0.003,-0.5066141 0.003,-1.0105823 0,-1.5119048 -0.24935,-0.00265 -0.50134,-0.00265 -0.75597,0 0.003,-0.5066141 0.003,-1.0105821 0,-1.5119045 -0.24935,-0.00265 -0.50131,-0.00265 -0.75594,0 0.003,-0.5066141 0.003,-1.0105824 0,-1.5119048 -0.24935,-0.00265 -0.50134,-0.00265 -0.75597,0 -0.50131,-0.25463 -1.00529,-0.5066141 -1.51188,-0.7559525" />
    <text
       xml:space="preserve"
       style="font-style:normal;font-weight:normal;font-size:10.58333302px;line-height:1.25;font-family:sans-serif;letter-spacing:0px;word-spacing:0px;fill:#000000;fill-opacity:1;stroke:none;stroke-width:0.26458332"
       x="431.6488"
       y="-98.363091"
       id="text460"><tspan
         sodipodi:role="line"
         id="tspan458"
         x="431.6488"
         y="-98.363091"
         style="stroke-width:0.26458332">WHAAAAAAA?!</tspan></text>
    <path
       style="fill:#000000;stroke:#000000;stroke-width:0.26458332px;stroke-linecap:butt;stroke-linejoin:miter;stroke-opacity:1"
       d="m 458.86309,-85.511904 c 0,0 -21.92261,27.214285 -21.92261,27.214285"
       id="path462"
       inkscape:connector-curvature="0"
       inkscape:path-effect="#path-effect464"
       inkscape:original-d="m 458.86309,-85.511904 -21.92261,27.214285" />
    <path
       sodipodi:type="star"
       style="fill:#008080;stroke:#000000;stroke-width:0.26458332"
       id="path491"
       sodipodi:sides="5"
       sodipodi:cx="-210.15477"
       sodipodi:cy="129.93452"
       sodipodi:r1="16.178087"
       sodipodi:r2="8.0890436"
       sodipodi:arg1="0.9179497"
       sodipodi:arg2="1.5462682"
       inkscape:flatsided="false"
       inkscape:rounded="0"
       inkscape:randomized="0"
       d="m -200.32739,142.78571 -9.62899,-4.76458 -9.38377,5.23103 1.55586,-10.63006 -7.87474,-7.30802 10.59057,-1.80515 4.51691,-9.74763 4.98947,9.51441 10.66635,1.28366 -7.50691,7.68538 z"
       inkscape:transform-center-x="0.12260836"
       inkscape:transform-center-y="-1.4277965" />
    <path
       sodipodi:type="star"
       style="fill:#008080;stroke:#000000;stroke-width:0.26458332"
       id="path493"
       sodipodi:sides="5"
       sodipodi:cx="-114.90476"
       sodipodi:cy="126.91071"
       sodipodi:r1="18.898809"
       sodipodi:r2="9.4494047"
       sodipodi:arg1="0.64350111"
       sodipodi:arg2="1.2718196"
       inkscape:flatsided="false"
       inkscape:rounded="0"
       inkscape:randomized="0"
       d="m -99.785715,138.25 -12.335795,-2.30907 -8.89551,8.85288 -1.61591,-12.44558 -11.16846,-5.72444 11.3371,-5.38272 1.99303,-12.39078 8.62263,9.11887 12.400212,-1.93348 -6.008032,11.01849 z"
       inkscape:transform-center-x="1.720142"
       inkscape:transform-center-y="-0.08866519" />
    <path
       style="fill:#000000;stroke:#000000;stroke-width:0.26458332"
       id="path495"
       sodipodi:type="arc"
       sodipodi:cx="5.6696429"
       sodipodi:cy="-73.79464"
       sodipodi:rx="45.735119"
       sodipodi:ry="24.568451"
       sodipodi:start="0"
       sodipodi:end="0.11309559"
       sodipodi:open="true"
       d="m 51.404762,-73.79464 a 45.735119,24.568451 0 0 1 -0.292179,2.772664" />
    <path
       style="fill:#000000;stroke:#000000;stroke-width:0.26458332"
       id="path497"
       sodipodi:type="arc"
       sodipodi:cx="-74.839287"
       sodipodi:cy="-45.446426"
       sodipodi:rx="49.892857"
       sodipodi:ry="21.166666"
       sodipodi:start="0"
       sodipodi:end="0.11309559"
       sodipodi:open="true"
       d="m -24.94643,-45.446426 a 49.892857,21.166666 0 0 1 -0.31874,2.388756" />
    <path
       style="fill:none;stroke:#000000;stroke-width:0.26458332px;stroke-linecap:butt;stroke-linejoin:miter;stroke-opacity:1"
       d="m -123.22024,-93.827379 c 56.696432,-18.898811 81.642859,16.630951 81.642859,16.630951 l -0.755952,42.333333 -57.452381,13.607143 -12.095236,18.8988092 -3.02381,-18.1428572 -26.45833,-19.654762 -5.29167,-24.946427 z"
       id="path499"
       inkscape:connector-curvature="0" />
    <text
       xml:space="preserve"
       style="font-style:normal;font-weight:normal;font-size:10.58333302px;line-height:1.25;font-family:sans-serif;letter-spacing:0px;word-spacing:0px;fill:#000000;fill-opacity:1;stroke:none;stroke-width:0.26458332"
       x="-124.73214"
       y="-73.416664"
       id="text503"><tspan
         sodipodi:role="line"
         id="tspan501"
         x="-124.73214"
         y="-73.416664"
         style="stroke-width:0.26458332">I AM NOT A </tspan><tspan
         sodipodi:role="line"
         x="-124.73214"
         y="-60.187496"
         style="stroke-width:0.26458332"
         id="tspan505">HOUSE!!!</tspan></text>
    <path
       style="fill:none;stroke:#000000;stroke-width:0.26458332px;stroke-linecap:butt;stroke-linejoin:miter;stroke-opacity:1"
       d="m 31.624926,195.57688 c -1.134068,-0.62999 -2.393988,-1.38594 -3.652976,-1.76415 -1.258987,-0.37821 -2.518908,-0.37821 -3.27486,-0.37821 -0.755953,0 -1.007936,0 -1.25992,0 -0.251985,0 -0.503969,0 -0.631284,0.25066 -0.127315,0.25066 -0.127315,0.75463 -0.251984,1.00794 -0.124669,0.25331 -0.376653,0.25331 -0.503968,0.37797 -0.127315,0.12467 -0.127315,0.37666 -0.251984,0.50397 -0.124669,0.12732 -0.376654,0.12732 -0.503969,0.25199 -0.127315,0.12467 -0.127315,0.37665 -0.377975,0.75463 -0.25066,0.37797 -0.754628,0.88194 -1.007936,1.25992 -0.253308,0.37797 -0.253308,0.62996 -0.377978,0.75728 -0.124669,0.12731 -0.376653,0.12731 -0.503968,0.25198 -0.127315,0.12467 -0.127315,0.37665 -0.251984,0.50397 -0.124669,0.12731 -0.376653,0.12731 -0.503968,0.25198 -0.127315,0.12467 -0.127315,0.37665 -0.377975,0.75463 -0.25066,0.37797 -0.754629,0.88194 -1.007937,1.38591 -0.253308,0.50397 -0.253308,1.00794 -0.377977,1.26125 -0.124669,0.2533 -0.376653,0.2533 -0.503968,0.37797 -0.127315,0.12467 -0.127315,0.37665 -0.127315,0.62864 0,0.25198 0,0.50397 0,0.75596 0,0.25198 0,0.50396 0,0.75595 0,0.25198 0,0.50396 -0.124669,0.75595 -0.124669,0.25198 -0.37665,0.50396 -0.503967,1.38591 -0.127317,0.88194 -0.127317,2.39385 -0.0013,3.27712 0.125993,0.88326 0.377975,1.13525 0.503968,1.63789 0.125992,0.50265 0.125992,1.2586 0.253307,1.6379 0.127315,0.3793 0.379299,0.3793 0.503968,0.50397 0.124669,0.12466 0.124669,0.37665 0.250662,0.62996 0.125993,0.2533 0.377975,0.50529 0.503968,0.75595 0.125992,0.25066 0.125992,0.50264 0.253307,0.62996 0.127315,0.12731 0.379299,0.12731 0.503968,0.25198 0.124669,0.12467 0.124669,0.37666 0.251984,0.50398 0.127315,0.12731 0.379299,0.12731 0.629961,0.2533 0.250662,0.12599 0.502644,0.37798 0.755952,0.50397 0.253307,0.12599 0.505291,0.12599 0.755953,0.25198 0.250661,0.12599 0.502644,0.37798 1.007935,0.50397 0.505292,0.12599 1.261244,0.12599 2.26918,0.12599 1.007937,0 2.267858,0 3.02381,0 0.755951,0 1.007935,0 1.259921,0 0.251985,0 0.503968,0 0.755952,-0.12731 0.251984,-0.12732 0.503967,-0.3793 0.881943,-0.50397 0.377977,-0.12467 0.881947,-0.12467 1.259923,-0.25198 0.377976,-0.12732 0.629959,-0.3793 1.007935,-0.50397 0.377976,-0.12467 0.881944,-0.12467 1.132606,-0.25198 0.250662,-0.12732 0.250662,-0.37931 0.377977,-0.50398 0.127315,-0.12467 0.379299,-0.12467 1.009259,-0.62996 0.62996,-0.50529 1.637901,-1.51323 2.267858,-2.14318 0.629958,-0.62996 0.881943,-0.88195 1.133927,-1.13393 0.251985,-0.25199 0.503967,-0.50397 0.755952,-0.62864 0.251986,-0.12467 0.50397,-0.12467 0.628639,-0.25198 0.124669,-0.12732 0.124669,-0.3793 0.37824,-0.63076 0.253572,-0.25145 0.757542,-0.50344 1.007937,-0.75595 0.250395,-0.25251 0.250395,-0.5045 0.377711,-0.62917 0.127316,-0.12467 0.3793,-0.12467 0.503969,-0.62996 0.124669,-0.50529 0.124669,-1.51322 0.124669,-2.64715 0,-1.13393 0,-2.39385 -0.125992,-3.14848 -0.125993,-0.75463 -0.377975,-1.00661 -0.503969,-1.25992 -0.125993,-0.25331 -0.125993,-0.50529 -0.250662,-0.62996 -0.124669,-0.12467 -0.376653,-0.12467 -0.503968,-0.25198 -0.127315,-0.12732 -0.127315,-0.37931 -0.251984,-0.50398 -0.124669,-0.12467 -0.376653,-0.12467 -0.503968,-0.25198 -0.127314,-0.12732 -0.127314,-0.3793 -0.251983,-0.50397 -0.124669,-0.12467 -0.376653,-0.12467 -0.503968,-0.25198 -0.127315,-0.12732 -0.127315,-0.3793 -0.251986,-0.50397 -0.12467,-0.12467 -0.376653,-0.12467 -0.503968,-0.25198 -0.127315,-0.12732 -0.127315,-0.3793 -0.377976,-0.50397 -0.250661,-0.12467 -0.754629,-0.12467 -1.007936,-0.25198 -0.253306,-0.12732 -0.253306,-0.37931 -0.503967,-0.50397 -0.250661,-0.12467 -0.754632,-0.12467 -1.007939,-0.25198 -0.253306,-0.12732 -0.253306,-0.37931 -0.756744,-0.7557 -0.503439,-0.37639 -1.511378,-0.88035 -2.645445,-1.51035 z"
       id="path507"
       inkscape:connector-curvature="0"
       inkscape:path-effect="#path-effect509"
       inkscape:original-d="m 31.75,195.70238 c -1.257274,-0.7586 -2.517196,-1.51455 -3.779761,-2.26786 -1.257276,-0.003 -2.517197,-0.003 -3.779763,0 -0.249339,-0.003 -0.501322,-0.003 -0.755952,0 -0.249339,-0.003 -0.501323,-0.003 -0.755953,0 0.0026,0.50132 0.0026,1.00529 0,1.51191 -0.249338,-0.003 -0.501322,-0.003 -0.755952,0 0.0026,0.24933 0.0026,0.50132 0,0.75595 -0.249338,-0.003 -0.501323,-0.003 -0.755953,0 0.0026,0.24934 0.0026,0.50132 0,0.75595 -0.501322,0.50132 -1.00529,1.00529 -1.511904,1.51191 0.0026,0.24933 0.0026,0.50132 0,0.75595 -0.249339,-0.003 -0.501323,-0.003 -0.755953,0 0.0026,0.24934 0.0026,0.50132 0,0.75595 -0.249338,-0.003 -0.501322,-0.003 -0.755952,0 0.0026,0.24934 0.0026,0.50132 0,0.75595 -0.501322,0.50132 -1.005291,1.00529 -1.511905,1.51191 0.0026,0.50132 0.0026,1.00529 0,1.5119 -0.249338,-0.003 -0.501322,-0.003 -0.755952,0 0.0026,0.24934 0.0026,0.50132 0,0.75595 0.0026,0.24934 0.0026,0.50133 0,0.75596 0.0026,0.24934 0.0026,0.50132 0,0.75595 0.0026,0.24934 0.0026,0.50132 0,0.75595 -0.249339,0.24934 -0.501323,0.50132 -0.755953,0.75596 0.0026,1.50925 0.0026,3.02116 0,4.53571 0.25463,0.24934 0.506614,0.50132 0.755953,0.75595 0.0026,0.75331 0.0026,1.50926 0,2.26786 0.25463,-0.003 0.506614,-0.003 0.755952,0 0.0026,0.24933 0.0026,0.50132 0,0.75595 0.25463,0.24934 0.506614,0.50132 0.755953,0.75595 0.0026,0.24934 0.0026,0.50132 0,0.75595 0.25463,-0.003 0.506614,-0.003 0.755952,0 0.0026,0.24934 0.0026,0.50133 0,0.75596 0.25463,-0.003 0.506614,-0.003 0.755952,0 0.25463,0.24934 0.506614,0.50132 0.755953,0.75595 0.25463,-0.003 0.506614,-0.003 0.755952,0 0.25463,0.24934 0.506614,0.50132 0.755952,0.75595 0.758599,-0.003 1.514551,-0.003 2.267858,0 1.262566,-0.003 2.522487,-0.003 3.779761,0 0.254629,-0.003 0.506613,-0.003 0.755954,0 0.25463,-0.003 0.506613,-0.003 0.755951,0 0.25463,-0.25463 0.506614,-0.50661 0.755952,-0.75595 0.506614,-0.003 1.010584,-0.003 1.511906,0 0.25463,-0.25463 0.506614,-0.50661 0.755952,-0.75595 0.506613,-0.003 1.010581,-0.003 1.511905,0 0.0026,-0.25463 0.0026,-0.50662 0,-0.75596 0.25463,-0.003 0.506614,-0.003 0.755952,0 1.010581,-1.01058 2.01852,-2.01852 3.023809,-3.0238 0.25463,-0.25463 0.506614,-0.50662 0.755952,-0.75596 0.25463,-0.25463 0.506613,-0.50661 0.755954,-0.75595 0.25463,-0.003 0.506614,-0.003 0.755952,0 0.0026,-0.25463 0.0026,-0.50661 0,-0.75595 0.506613,-0.25463 1.010581,-0.50662 1.511903,-0.75595 0.0026,-0.25463 0.0026,-0.50662 0,-0.75596 0.254632,-0.003 0.506616,-0.003 0.755954,0 0.0026,-1.01058 0.0026,-2.01851 0,-3.0238 0.0026,-1.26257 0.0026,-2.52249 0,-3.77977 -0.249338,-0.25463 -0.501322,-0.50661 -0.755954,-0.75595 0.0026,-0.25463 0.0026,-0.50661 0,-0.75595 -0.249338,-0.003 -0.501322,-0.003 -0.755952,0 0.0026,-0.25463 0.0026,-0.50662 0,-0.75596 -0.249338,-0.003 -0.501322,-0.003 -0.755951,0 0.0026,-0.25463 0.0026,-0.50661 0,-0.75595 -0.249338,-0.003 -0.501322,-0.003 -0.755952,0 0.0026,-0.25463 0.0026,-0.50661 0,-0.75595 -0.249341,-0.003 -0.501324,-0.003 -0.755954,0 0.0026,-0.25463 0.0026,-0.50661 0,-0.75595 -0.501322,-0.003 -1.00529,-0.003 -1.511903,0 0.0026,-0.25463 0.0026,-0.50662 0,-0.75595 -0.501322,-0.003 -1.005293,-0.003 -1.511906,0 0.0026,-0.25463 0.0026,-0.50662 0,-0.75596 -1.00529,-0.50661 -2.013228,-1.01058 -3.023809,-1.5119 z" />
    <path
       style="fill:none;stroke:#000000;stroke-width:0.26458332px;stroke-linecap:butt;stroke-linejoin:miter;stroke-opacity:1"
       d="m 26.458333,219.89285 c -0.251374,1.25687 -0.503357,2.51679 -0.754324,3.14828 -0.250967,0.63149 -0.502951,0.63149 -0.630266,1.00814 -0.127315,0.37665 -0.127315,1.1326 -0.251984,1.5119 -0.124669,0.3793 -0.376653,0.3793 -0.503968,0.62997 -0.127315,0.25066 -0.127315,0.75462 -0.251985,1.00793 -0.124669,0.25331 -0.376652,0.25331 -0.503967,0.50397 -0.127315,0.25066 -0.127315,0.75463 -0.251985,1.00794 -0.124669,0.2533 -0.376653,0.2533 -0.503968,0.50397 -0.127315,0.25066 -0.127315,0.75462 -0.251984,1.00793 -0.124669,0.25331 -0.376653,0.25331 -0.503968,0.37798 -0.127315,0.12466 -0.127315,0.37665 -0.127315,0.62864 0,0.25198 0,0.50396 0,2.01587 0,1.5119 0,4.28373 0,5.79564 0,1.5119 0,1.76388 0,2.01587 0,0.25198 0,0.50396 -0.124669,0.63128 -0.124669,0.12731 -0.376654,0.12731 -0.503969,0.37798 -0.127315,0.25066 -0.127315,0.75462 -0.251985,1.1326 -0.124669,0.37798 -0.376652,0.62996 -0.503967,0.88195 -0.127315,0.25198 -0.127315,0.50396 -0.377712,0.75647 -0.250397,0.25252 -0.754368,0.5045 -1.007938,0.75596 -0.25357,0.25145 -0.25357,0.50344 -0.378239,0.63076 -0.124669,0.12731 -0.376653,0.12731 -0.503968,0.37797 -0.127315,0.25066 -0.127315,0.75463 -0.251985,1.1326 -0.124669,0.37798 -0.376652,0.62996 -0.503967,1.25993 -0.127315,0.62996 -0.127315,1.63789 -0.251985,2.14318 -0.124669,0.50529 -0.376653,0.50529 -0.503968,0.62996 -0.127315,0.12467 -0.127315,0.37666 -0.127315,1.2586 0,0.88194 0,2.39385 -0.125197,3.40152 -0.125198,1.00767 -0.377182,1.51164 -0.503968,2.51985 -0.126787,1.0082 -0.126787,2.5201 -0.126787,3.40205 0,0.88194 0,1.13392 0,1.38591 0,0.25198 0,0.50396 0.127315,0.63128 0.127315,0.12731 0.379299,0.12731 0.379299,0.12731 0,0 -0.251984,0 -0.125727,-0.12679 0.126257,-0.12678 0.630223,-0.37876 1.133622,-0.88347 0.5034,-0.5047 1.007366,-1.26065 1.5093,-2.01355"
       id="path511"
       inkscape:connector-curvature="0"
       inkscape:path-effect="#path-effect513"
       inkscape:original-d="m 26.458333,219.89285 c -0.249338,1.25728 -0.501322,2.5172 -0.755952,3.77977 -0.249339,-0.003 -0.501323,-0.003 -0.755953,0 0.0026,0.7533 0.0026,1.50925 0,2.26785 -0.249338,-0.003 -0.501322,-0.003 -0.755952,0 0.0026,0.50133 0.0026,1.00529 0,1.51191 -0.249339,-0.003 -0.501322,-0.003 -0.755952,0 0.0026,0.50132 0.0026,1.00529 0,1.5119 -0.249339,-0.003 -0.501323,-0.003 -0.755953,0 0.0026,0.50133 0.0026,1.00529 0,1.51191 -0.249338,-0.003 -0.501322,-0.003 -0.755952,0 0.0026,0.24933 0.0026,0.50132 0,0.75595 0.0026,0.24934 0.0026,0.50132 0,0.75595 0.0026,2.76918 0.0026,5.54101 0,8.31548 0.0026,0.24934 0.0026,0.50132 0,0.75595 0.0026,0.24934 0.0026,0.50132 0,0.75595 -0.249338,-0.003 -0.501323,-0.003 -0.755953,0 0.0026,0.50133 0.0026,1.00529 0,1.51191 -0.249338,0.24934 -0.501322,0.50132 -0.755952,0.75595 0.0026,0.24934 0.0026,0.50132 0,0.75595 -0.501322,0.24934 -1.005291,0.50133 -1.511905,0.75595 0.0026,0.24934 0.0026,0.50133 0,0.75596 -0.249338,-0.003 -0.501322,-0.003 -0.755952,0 0.0026,0.50132 0.0026,1.00529 0,1.5119 -0.249338,0.24934 -0.501322,0.50132 -0.755952,0.75595 0.0026,1.0053 0.0026,2.01323 0,3.02381 -0.249339,-0.003 -0.501323,-0.003 -0.755953,0 0.0026,0.24934 0.0026,0.50133 0,0.75596 0.0026,1.50925 0.0026,3.02116 0,4.53571 -0.249338,0.50132 -0.501322,1.00529 -0.755952,1.51191 0.0026,1.50926 0.0026,3.02116 0,4.53571 0.0026,0.24934 0.0026,0.50132 0,0.75595 0.0026,0.24934 0.0026,0.50132 0,0.75595 0.25463,-0.003 0.506614,-0.003 0.755952,0 -0.249338,-0.003 -0.501322,-0.003 -0.755952,0 0.506614,-0.25463 1.010582,-0.50661 1.511905,-0.75595 0.506614,-0.7586 1.010582,-1.51455 1.511904,-2.26786" />
    <path
       style="fill:none;stroke:#000000;stroke-width:0.26458332px;stroke-linecap:butt;stroke-linejoin:miter;stroke-opacity:1"
       d="m 22.678571,246.35119 c 0.503439,1.00688 1.007405,2.01481 1.38697,2.51931 0.379565,0.5045 0.631549,0.5045 0.756218,0.75516 0.124669,0.25066 0.124669,0.75463 0.250662,1.13393 0.125993,0.37929 0.377975,0.63128 0.503968,1.00793 0.125992,0.37666 0.125992,0.88063 0.251985,1.25993 0.125992,0.37929 0.377975,0.63128 0.503967,1.5119 0.125992,0.88062 0.125992,2.39252 0.125992,3.27446 0,0.88195 0,1.13394 0.127315,1.26125 0.127315,0.12732 0.379299,0.12732 0.503968,0.62996 0.124669,0.50265 0.124669,1.51058 0.251984,2.01588 0.127314,0.50529 0.379298,0.50529 0.503969,0.75595 0.12467,0.25066 0.12467,0.75463 0.250396,1.25939 0.125727,0.50476 0.37771,1.00873 0.503968,1.38591 0.126257,0.37719 0.126257,0.62916 0.126257,0.62916 0,0 0,-0.25197 0,-0.62995 0,-0.37798 0,-0.88195 0,-1.38327"
       id="path515"
       inkscape:connector-curvature="0"
       inkscape:path-effect="#path-effect517"
       inkscape:original-d="m 22.678571,246.35119 c 0.506614,1.00529 1.010583,2.01322 1.511905,3.02381 0.25463,-0.003 0.506614,-0.003 0.755952,0 0.0026,0.50132 0.0026,1.00529 0,1.5119 0.25463,0.24934 0.506614,0.50132 0.755953,0.75595 0.0026,0.50133 0.0026,1.0053 0,1.51191 0.25463,0.24934 0.506614,0.50132 0.755952,0.75595 0.0026,1.50926 0.0026,3.02116 0,4.53572 0.0026,0.24933 0.0026,0.50132 0,0.75595 0.25463,-0.003 0.506614,-0.003 0.755952,0 0.0026,1.00529 0.0026,2.01322 0,3.02381 0.254629,-0.003 0.506613,-0.003 0.755954,0 0.0026,0.50132 0.0026,1.00529 0,1.5119 0.25463,0.50132 0.506613,1.00529 0.755951,1.51191 0.0026,0.24934 0.0026,0.50131 0,0.75594 0.0026,-0.25463 0.0026,-0.5066 0,-0.75594 0.0026,-0.50662 0.0026,-1.01059 0,-1.51191" />
    <path
       style="fill:none;stroke:#000000;stroke-width:0.26458332px;stroke-linecap:butt;stroke-linejoin:miter;stroke-opacity:1"
       d="m 24.946428,220.64881 c -1.257274,0 -2.517195,0 -3.27447,-0.12599 -0.757275,-0.126 -1.00926,-0.37798 -1.259921,-0.50398 -0.250661,-0.12599 -0.502645,-0.12599 -0.881415,-0.25172 -0.378771,-0.12572 -0.882737,-0.37771 -1.25992,-0.50396 -0.377183,-0.12626 -0.629167,-0.12626 -0.882474,-0.25225 -0.253308,-0.12599 -0.50529,-0.37798 -0.882738,-0.62969 -0.377448,-0.25172 -0.881415,-0.50371 -1.259921,-0.75596 -0.378505,-0.25225 -0.63049,-0.50423 -1.133665,-0.75595 -0.503175,-0.25172 -1.259126,-0.50371 -1.637896,-0.75728 -0.37877,-0.25357 -0.37877,-0.50555 -0.503439,-0.63022 -0.124669,-0.12467 -0.376653,-0.12467 -0.503968,-0.25199 -0.127315,-0.12731 -0.127315,-0.3793 -0.251985,-0.50397 -0.124669,-0.12466 -0.376653,-0.12466 -0.503968,-0.37797 -0.127315,-0.25331 -0.127315,-0.75727 -0.251984,-1.00794 -0.124669,-0.25066 -0.376653,-0.25066 -0.5039681,-0.37798 -0.1273151,-0.12731 -0.1273151,-0.37929 -0.2519843,-0.50396 -0.1246691,-0.12467 -0.3766532,-0.12467 -0.5039682,-0.25199 -0.127315,-0.12731 -0.127315,-0.37929 -0.2519842,-0.50396 -0.1246691,-0.12467 -0.3766533,-0.12467 -0.6299605,-0.25066 -0.2533072,-0.12599 -0.5052945,-0.37798 -0.7559539,-0.50397 -0.2506593,-0.12599 -0.5026434,-0.12599 -0.6299584,-0.25331 -0.127315,-0.12731 -0.127315,-0.3793 -0.2519842,-0.50397 -0.1246691,-0.12467 -0.3766532,-0.12467 -0.5039682,-0.25199 -0.127315,-0.12731 -0.127315,-0.37929 -0.2533073,-0.62995 -0.1259922,-0.25066 -0.3779747,-0.50265 -1.007935,-1.13261 -0.6299604,-0.62996 -1.6378986,-1.63789 -2.1418666,-2.26918 -0.503968,-0.63128 -0.503968,-0.88326 -0.6299594,-1.13392 -0.1259915,-0.25067 -0.3779773,-0.50265 -0.629961,-0.75464"
       id="path519"
       inkscape:connector-curvature="0"
       inkscape:path-effect="#path-effect521"
       inkscape:original-d="m 24.946428,220.64881 c -1.257274,-0.003 -2.517195,-0.003 -3.779762,0 -0.249338,-0.25463 -0.501322,-0.50662 -0.755952,-0.75596 -0.249338,-0.003 -0.501322,-0.003 -0.755952,0 -0.501323,-0.25463 -1.005291,-0.50661 -1.511905,-0.75595 -0.249338,-0.003 -0.501322,-0.003 -0.755952,0 -0.249339,-0.25463 -0.501323,-0.50661 -0.755953,-0.75595 -0.501322,-0.25463 -1.005291,-0.50661 -1.511905,-0.75595 -0.249338,-0.25463 -0.501322,-0.50662 -0.755952,-0.75596 -0.753307,-0.25463 -1.509259,-0.50661 -2.267857,-0.75595 0.0026,-0.25463 0.0026,-0.50661 0,-0.75595 -0.249338,-0.003 -0.501322,-0.003 -0.755952,0 0.0026,-0.25463 0.0026,-0.50662 0,-0.75595 -0.249339,-0.003 -0.501323,-0.003 -0.755953,0 0.0026,-0.50662 0.0026,-1.01058 0,-1.51191 -0.249338,-0.003 -0.501322,-0.003 -0.7559522,0 0.00265,-0.25463 0.00265,-0.50661 0,-0.75595 -0.2493383,-0.003 -0.5013224,-0.003 -0.7559524,0 0.00265,-0.25463 0.00265,-0.50661 0,-0.75595 -0.2493383,-0.003 -0.5013225,-0.003 -0.7559524,0 -0.2493383,-0.25463 -0.5013222,-0.50662 -0.7559522,-0.75595 -0.2493383,-0.003 -0.5013224,-0.003 -0.7559524,0 0.00265,-0.25463 0.00265,-0.50662 0,-0.75596 -0.2493383,-0.003 -0.5013224,-0.003 -0.7559524,0 0.00265,-0.25463 0.00265,-0.50661 0,-0.75595 -0.2493383,-0.25463 -0.5013224,-0.50661 -0.7559524,-0.75595 -1.0052907,-1.01058 -2.0132273,-2.01852 -3.0238095,-3.02381 0.00265,-0.25463 0.00265,-0.50661 0,-0.75595 -0.2493383,-0.25463 -0.5013224,-0.50662 -0.7559524,-0.75596" />
    <path
       style="fill:none;stroke:#000000;stroke-width:0.26458332px;stroke-linecap:butt;stroke-linejoin:miter;stroke-opacity:1"
       d="m 29.482142,225.18452 c 0,3.77712 0,7.55688 0,9.82473 0,2.26786 0,3.02381 0.125992,3.5291 0.125992,0.5053 0.377977,0.75728 0.62996,1.00927"
       id="path523"
       inkscape:connector-curvature="0"
       inkscape:path-effect="#path-effect525"
       inkscape:original-d="m 29.482142,225.18452 c 0.0026,3.77712 0.0026,7.55688 0,11.33929 0.0026,0.7533 0.0026,1.50925 0,2.26785 0.25463,0.24934 0.506614,0.50133 0.755952,0.75596" />
    <path
       style="fill:none;stroke:#000000;stroke-width:0.26458332px;stroke-linecap:butt;stroke-linejoin:miter;stroke-opacity:1"
       d="m 25.702381,218.38095 c 0,1.00529 0,2.01323 0.127315,2.51852 0.127315,0.50529 0.379299,0.50529 0.503968,0.62996 0.124669,0.12467 0.124669,0.37665 0.250661,0.62996 0.125992,0.25331 0.377972,0.50529 0.503966,0.75595 0.125994,0.25066 0.125994,0.50265 0.253309,0.62997 0.127314,0.12731 0.379298,0.12731 0.629696,0.37876 0.250397,0.25146 0.502382,0.75543 0.754894,1.26045"
       id="path527"
       inkscape:connector-curvature="0"
       inkscape:path-effect="#path-effect529"
       inkscape:original-d="m 25.702381,218.38095 c 0.0026,1.00529 0.0026,2.01323 0,3.02381 0.25463,-0.003 0.506614,-0.003 0.755952,0 0.0026,0.24934 0.0026,0.50132 0,0.75595 0.25463,0.24934 0.506614,0.50132 0.755952,0.75596 0.0026,0.24933 0.0026,0.50132 0,0.75595 0.254629,-0.003 0.506613,-0.003 0.755954,0 0.25463,0.50132 0.506613,1.00529 0.755951,1.5119" />
    <path
       style="fill:none;stroke:#000000;stroke-width:0.26458332px;stroke-linecap:butt;stroke-linejoin:miter;stroke-opacity:1"
       d="m 26.458333,201.75 c -0.251373,1.25686 -0.503357,2.51678 -0.629654,3.27294 -0.126298,0.75616 -0.126298,1.00814 -0.126298,1.00814 0,0 0,-0.25198 0,-0.12599 0,0.12599 0,0.62996 0,1.00794 0,0.37797 0,0.62996 -0.12467,0.75728 -0.124669,0.12731 -0.376653,0.12731 -0.503968,0.25198 -0.127315,0.12467 -0.127315,0.37665 -0.251985,0.62863 -0.124669,0.25199 -0.376652,0.50397 -0.631282,0.7586"
       id="path531"
       inkscape:connector-curvature="0"
       inkscape:path-effect="#path-effect533"
       inkscape:original-d="m 26.458333,201.75 c -0.249338,1.25727 -0.501322,2.51719 -0.755952,3.77976 0.0026,0.24934 0.0026,0.50132 0,0.75595 0.0026,-0.25463 0.0026,-0.50661 0,-0.75595 0.0026,0.50132 0.0026,1.00529 0,1.51191 0.0026,0.24933 0.0026,0.50132 0,0.75595 -0.249339,-0.003 -0.501323,-0.003 -0.755953,0 0.0026,0.24934 0.0026,0.50132 0,0.75595 -0.249338,0.24934 -0.501322,0.50132 -0.755952,0.75595" />
    <path
       style="fill:none;stroke:#000000;stroke-width:0.26458332px;stroke-linecap:butt;stroke-linejoin:miter;stroke-opacity:1"
       d="m 34.017857,204.01785 c -0.502692,1.25673 -1.00666,2.51665 -1.383952,3.14821 -0.377292,0.63156 -0.629276,0.63156 -0.756591,0.75623 -0.127314,0.12467 -0.127314,0.37665 -0.251983,0.50397 -0.124669,0.12731 -0.376653,0.12731 -0.503968,0.37797 -0.127315,0.25066 -0.127315,0.75463 -0.251984,1.00794 -0.124669,0.2533 -0.376653,0.2533 -0.503969,0.37797 -0.127316,0.12467 -0.127316,0.37666 -0.251983,0.62864 -0.124667,0.25198 -0.376655,0.50397 -0.50397,0.75596 -0.127315,0.25198 -0.127315,0.50396 -0.251985,0.75594 -0.124669,0.25199 -0.376652,0.50397 -0.631282,0.7586"
       id="path535"
       inkscape:connector-curvature="0"
       inkscape:path-effect="#path-effect537"
       inkscape:original-d="m 34.017857,204.01785 c -0.501322,1.25728 -1.005292,2.5172 -1.511906,3.77977 -0.249338,-0.003 -0.501322,-0.003 -0.755951,0 0.0026,0.24934 0.0026,0.50132 0,0.75595 -0.249338,-0.003 -0.501322,-0.003 -0.755952,0 0.0026,0.50132 0.0026,1.00529 0,1.5119 -0.249338,-0.003 -0.501322,-0.003 -0.755954,0 0.0026,0.24934 0.0026,0.50133 0,0.75596 -0.249338,0.24933 -0.501322,0.50132 -0.755952,0.75595 0.0026,0.24934 0.0026,0.50132 0,0.75595 -0.249338,0.24934 -0.501322,0.50132 -0.755952,0.75595" />
    <path
       style="fill:none;stroke:#000000;stroke-width:0.26458332px;stroke-linecap:butt;stroke-linejoin:miter;stroke-opacity:1"
       d="m 25.450921,211.82942 c -1.007094,-0.75546 -2.267011,-1.25943 -3.022326,-1.51169 -0.755314,-0.25226 -1.007299,-0.25226 -1.007299,-0.25226 0,0 0.251985,0 0.125992,0 -0.125992,0 -0.62996,0 -1.007936,0 -0.377976,0 -0.62996,0 -0.757275,0.12467 -0.127315,0.12467 -0.127315,0.37666 -0.251982,0.62864 -0.124668,0.25198 -0.376655,0.50397 -0.503971,0.88195 -0.127315,0.37797 -0.127315,0.88194 -0.251984,1.13525 -0.124669,0.2533 -0.376653,0.2533 -0.503968,0.62996 -0.127315,0.37665 -0.127315,1.1326 -0.127315,1.63657 0,0.50397 0,0.75595 0,0.62996 0,-0.12599 0,-0.62996 0,-0.50396 0,0.12599 0,0.88194 0.127315,1.26124 0.127315,0.37929 0.379299,0.37929 0.631283,0.37929 0.251984,0 0.503968,0 0.503968,0 0,0 -0.251984,0 0,0 0.251984,0 1.007937,0 1.511905,0 0.503968,0 0.755953,0 1.007937,0 0.251984,0 0.503968,0 0.754629,0.12599 0.250661,0.126 0.502647,0.37798 1.133929,0.50398 0.631283,0.12599 1.639219,0.12599 2.269179,0.12599 0.629961,0 0.881945,0 1.006614,-0.12731 0.124669,-0.12732 0.124669,-0.37931 0.124669,-0.63129 0,-0.25199 0,-0.50397 0.127315,-0.75595 0.127315,-0.25199 0.379298,-0.50397 0.503968,-0.75596 0.124671,-0.25198 0.124671,-0.50397 -0.253464,-1.13281 -0.378135,-0.62885 -1.134088,-1.63679 -2.141183,-2.39226 z"
       id="path539"
       inkscape:connector-curvature="0"
       inkscape:path-effect="#path-effect541"
       inkscape:original-d="m 25.702381,211.57738 c -1.257275,-0.50662 -2.517196,-1.01058 -3.779762,-1.51191 -0.249338,-0.003 -0.501323,-0.003 -0.755953,0 0.25463,-0.003 0.506615,-0.003 0.755953,0 -0.501323,-0.003 -1.005291,-0.003 -1.511905,0 -0.249338,-0.003 -0.501322,-0.003 -0.755952,0 0.0026,0.24934 0.0026,0.50133 0,0.75596 -0.249339,0.24933 -0.501323,0.50132 -0.755953,0.75595 0.0026,0.50132 0.0026,1.00529 0,1.5119 -0.249338,-0.003 -0.501322,-0.003 -0.755952,0 0.0026,0.75331 0.0026,1.50926 0,2.26786 0.0026,0.24934 0.0026,0.50132 0,0.75595 0.0026,-0.50661 0.0026,-1.01058 0,-1.5119 0.0026,0.75331 0.0026,1.50926 0,2.26785 0.25463,-0.003 0.506614,-0.003 0.755952,0 0.25463,-0.003 0.506614,-0.003 0.755953,0 -0.249339,-0.003 -0.501323,-0.003 -0.755953,0 0.758598,-0.003 1.514551,-0.003 2.267857,0 0.25463,-0.003 0.506615,-0.003 0.755953,0 0.25463,-0.003 0.506614,-0.003 0.755952,0 0.25463,0.24934 0.506614,0.50133 0.755953,0.75596 1.010582,-0.003 2.018518,-0.003 3.023809,0 0.25463,-0.003 0.506614,-0.003 0.755952,0 0.0026,-0.25463 0.0026,-0.50662 0,-0.75596 0.0026,-0.25463 0.0026,-0.50661 0,-0.75595 0.254629,-0.25463 0.506613,-0.50661 0.755954,-0.75595 0.0026,-0.25463 0.0026,-0.50662 0,-0.75595 -0.753309,-1.01058 -1.50926,-2.01852 -2.267858,-3.02381 z" />
    <text
       xml:space="preserve"
       style="font-style:normal;font-weight:normal;font-size:10.58333302px;line-height:1.25;font-family:sans-serif;letter-spacing:0px;word-spacing:-0.00264583px;fill:#000000;fill-opacity:1;stroke:none;stroke-width:0.26458332;"
       x="46.113091"
       y="179.82738"
       id="text551"><tspan
         sodipodi:role="line"
         id="tspan549"
         x="46.113091"
         y="179.82738"
         style="stroke-width:0.26458332;word-spacing:-0.00264583px;">YES U R</tspan></text>
    <path
       style="fill:none;stroke:#000000;stroke-width:0.26458332px;stroke-linecap:butt;stroke-linejoin:miter;stroke-opacity:1"
       d="m 37.797618,159.41667 c 43.089287,-13.60715 67.279762,13.60714 67.279762,13.60714 l -23.434524,18.89881 -21.922618,2.26785 -9.071429,7.55953 1.511905,-12.09524 -21.92262,-9.82738 z"
       id="path553"
       inkscape:connector-curvature="0" />
    <path
       style="fill:none;stroke:#000000;stroke-width:0.26458332px;stroke-linecap:butt;stroke-linejoin:miter;stroke-opacity:1"
       d="M -277.43451,199.48214 Z"
       id="path555"
       inkscape:connector-curvature="0" />
  </g>
</svg>
